<svg width="1363" height="167" viewBox="0 0 1363 167" fill="none" xmlns="http://www.w3.org/2000/svg">
<g style="mix-blend-mode:exclusion">
<rect width="1363" height="167" rx="15" fill="white" fill-opacity="0.05"/>
</g>
<g style="mix-blend-mode:exclusion">
<path d="M0 15C0 6.71573 6.71573 0 15 0H37V167H15C6.71573 167 0 160.284 0 152V15Z" fill="white" fill-opacity="0.25"/>
</g>
<g style="mix-blend-mode:exclusion">
<path d="M100.906 50.9219L93.3945 48.2383V45.0859L103.602 49.375V51.6367L100.906 50.9219ZM93.3945 53.1719L100.918 50.4297L103.602 49.7852V52.0352L93.3945 56.3242V53.1719ZM121.32 40.9375H124.824V52.2109C124.824 53.5234 124.543 54.6289 123.98 55.5273C123.426 56.4258 122.656 57.1016 121.672 57.5547C120.695 58.0078 119.57 58.2344 118.297 58.2344C117.023 58.2344 115.891 58.0078 114.898 57.5547C113.914 57.1016 113.141 56.4258 112.578 55.5273C112.023 54.6289 111.746 53.5234 111.746 52.2109V40.9375H115.262V52.2109C115.262 52.9766 115.383 53.6016 115.625 54.0859C115.867 54.5703 116.215 54.9258 116.668 55.1523C117.129 55.3789 117.672 55.4922 118.297 55.4922C118.938 55.4922 119.48 55.3789 119.926 55.1523C120.379 54.9258 120.723 54.5703 120.957 54.0859C121.199 53.6016 121.32 52.9766 121.32 52.2109V40.9375ZM132.746 55.5977C133.16 55.5977 133.527 55.5195 133.848 55.3633C134.168 55.1992 134.418 54.9727 134.598 54.6836C134.785 54.3867 134.883 54.0391 134.891 53.6406H138.066C138.059 54.5312 137.82 55.3242 137.352 56.0195C136.883 56.707 136.254 57.25 135.465 57.6484C134.676 58.0391 133.793 58.2344 132.816 58.2344C131.832 58.2344 130.973 58.0703 130.238 57.7422C129.512 57.4141 128.906 56.9609 128.422 56.3828C127.938 55.7969 127.574 55.1172 127.332 54.3438C127.09 53.5625 126.969 52.7266 126.969 51.8359V51.4961C126.969 50.5977 127.09 49.7617 127.332 48.9883C127.574 48.207 127.938 47.5273 128.422 46.9492C128.906 46.3633 129.512 45.9062 130.238 45.5781C130.965 45.25 131.816 45.0859 132.793 45.0859C133.832 45.0859 134.742 45.2852 135.523 45.6836C136.312 46.082 136.93 46.6523 137.375 47.3945C137.828 48.1289 138.059 49 138.066 50.0078H134.891C134.883 49.5859 134.793 49.2031 134.621 48.8594C134.457 48.5156 134.215 48.2422 133.895 48.0391C133.582 47.8281 133.195 47.7227 132.734 47.7227C132.242 47.7227 131.84 47.8281 131.527 48.0391C131.215 48.2422 130.973 48.5234 130.801 48.8828C130.629 49.2344 130.508 49.6367 130.438 50.0898C130.375 50.5352 130.344 51.0039 130.344 51.4961V51.8359C130.344 52.3281 130.375 52.8008 130.438 53.2539C130.5 53.707 130.617 54.1094 130.789 54.4609C130.969 54.8125 131.215 55.0898 131.527 55.293C131.84 55.4961 132.246 55.5977 132.746 55.5977ZM146.867 55.1406V49.4922C146.867 49.0859 146.801 48.7383 146.668 48.4492C146.535 48.1523 146.328 47.9219 146.047 47.7578C145.773 47.5938 145.418 47.5117 144.98 47.5117C144.605 47.5117 144.281 47.5781 144.008 47.7109C143.734 47.8359 143.523 48.0195 143.375 48.2617C143.227 48.4961 143.152 48.7734 143.152 49.0938H139.777C139.777 48.5547 139.902 48.043 140.152 47.5586C140.402 47.0742 140.766 46.6484 141.242 46.2812C141.719 45.9062 142.285 45.6133 142.941 45.4023C143.605 45.1914 144.348 45.0859 145.168 45.0859C146.152 45.0859 147.027 45.25 147.793 45.5781C148.559 45.9062 149.16 46.3984 149.598 47.0547C150.043 47.7109 150.266 48.5312 150.266 49.5156V54.9414C150.266 55.6367 150.309 56.207 150.395 56.6523C150.48 57.0898 150.605 57.4727 150.77 57.8008V58H147.359C147.195 57.6562 147.07 57.2266 146.984 56.7109C146.906 56.1875 146.867 55.6641 146.867 55.1406ZM147.312 50.2773L147.336 52.1875H145.449C145.004 52.1875 144.617 52.2383 144.289 52.3398C143.961 52.4414 143.691 52.5859 143.48 52.7734C143.27 52.9531 143.113 53.1641 143.012 53.4062C142.918 53.6484 142.871 53.9141 142.871 54.2031C142.871 54.4922 142.938 54.7539 143.07 54.9883C143.203 55.2148 143.395 55.3945 143.645 55.5273C143.895 55.6523 144.188 55.7148 144.523 55.7148C145.031 55.7148 145.473 55.6133 145.848 55.4102C146.223 55.207 146.512 54.957 146.715 54.6602C146.926 54.3633 147.035 54.082 147.043 53.8164L147.934 55.2461C147.809 55.5664 147.637 55.8984 147.418 56.2422C147.207 56.5859 146.938 56.9102 146.609 57.2148C146.281 57.5117 145.887 57.7578 145.426 57.9531C144.965 58.1406 144.418 58.2344 143.785 58.2344C142.98 58.2344 142.25 58.0742 141.594 57.7539C140.945 57.4258 140.43 56.9766 140.047 56.4062C139.672 55.8281 139.484 55.1719 139.484 54.4375C139.484 53.7734 139.609 53.1836 139.859 52.668C140.109 52.1523 140.477 51.7188 140.961 51.3672C141.453 51.0078 142.066 50.7383 142.801 50.5586C143.535 50.3711 144.387 50.2773 145.355 50.2773H147.312ZM156.242 48.0859V58H152.867V45.3203H156.043L156.242 48.0859ZM160.062 45.2383L160.004 48.3672C159.84 48.3438 159.641 48.3242 159.406 48.3086C159.18 48.2852 158.973 48.2734 158.785 48.2734C158.309 48.2734 157.895 48.3359 157.543 48.4609C157.199 48.5781 156.91 48.7539 156.676 48.9883C156.449 49.2227 156.277 49.5078 156.16 49.8438C156.051 50.1797 155.988 50.5625 155.973 50.9922L155.293 50.7812C155.293 49.9609 155.375 49.207 155.539 48.5195C155.703 47.8242 155.941 47.2188 156.254 46.7031C156.574 46.1875 156.965 45.7891 157.426 45.5078C157.887 45.2266 158.414 45.0859 159.008 45.0859C159.195 45.0859 159.387 45.1016 159.582 45.1328C159.777 45.1562 159.938 45.1914 160.062 45.2383ZM168.91 55.2344V40H172.309V58H169.25L168.91 55.2344ZM160.895 51.8125V51.5664C160.895 50.5977 161.004 49.7188 161.223 48.9297C161.441 48.1328 161.762 47.4492 162.184 46.8789C162.605 46.3086 163.125 45.8672 163.742 45.5547C164.359 45.2422 165.062 45.0859 165.852 45.0859C166.594 45.0859 167.242 45.2422 167.797 45.5547C168.359 45.8672 168.836 46.3125 169.227 46.8906C169.625 47.4609 169.945 48.1367 170.188 48.918C170.43 49.6914 170.605 50.5391 170.715 51.4609V52C170.605 52.8828 170.43 53.7031 170.188 54.4609C169.945 55.2188 169.625 55.8828 169.227 56.4531C168.836 57.0156 168.359 57.4531 167.797 57.7656C167.234 58.0781 166.578 58.2344 165.828 58.2344C165.039 58.2344 164.336 58.0742 163.719 57.7539C163.109 57.4336 162.594 56.9844 162.172 56.4062C161.758 55.8281 161.441 55.1484 161.223 54.3672C161.004 53.5859 160.895 52.7344 160.895 51.8125ZM164.27 51.5664V51.8125C164.27 52.3359 164.309 52.8242 164.387 53.2773C164.473 53.7305 164.609 54.1328 164.797 54.4844C164.992 54.8281 165.242 55.0977 165.547 55.293C165.859 55.4805 166.238 55.5742 166.684 55.5742C167.262 55.5742 167.738 55.4453 168.113 55.1875C168.488 54.9219 168.773 54.5586 168.969 54.0977C169.172 53.6367 169.289 53.1055 169.32 52.5039V50.9688C169.297 50.4766 169.227 50.0352 169.109 49.6445C169 49.2461 168.836 48.9062 168.617 48.625C168.406 48.3438 168.141 48.125 167.82 47.9688C167.508 47.8125 167.137 47.7344 166.707 47.7344C166.27 47.7344 165.895 47.8359 165.582 48.0391C165.27 48.2344 165.016 48.5039 164.82 48.8477C164.633 49.1914 164.492 49.5977 164.398 50.0664C164.312 50.5273 164.27 51.0273 164.27 51.5664Z" fill="white" fill-opacity="0.5"/>
</g>
<g style="mix-blend-mode:exclusion">
<path d="M115.994 98.708V104.641H99.5806V98.708H115.994ZM102.151 86.0078V118H94.439V86.0078H102.151ZM121.18 86.0078V118H113.489V86.0078H121.18ZM124.805 106.354V105.893C124.805 104.15 125.054 102.546 125.552 101.081C126.05 99.6016 126.783 98.3198 127.75 97.2358C128.716 96.1519 129.91 95.3096 131.331 94.709C132.752 94.0938 134.393 93.7861 136.253 93.7861C138.128 93.7861 139.776 94.0938 141.197 94.709C142.632 95.3096 143.833 96.1519 144.8 97.2358C145.767 98.3198 146.5 99.6016 146.998 101.081C147.496 102.546 147.745 104.15 147.745 105.893V106.354C147.745 108.083 147.496 109.687 146.998 111.167C146.5 112.631 145.767 113.913 144.8 115.012C143.833 116.096 142.64 116.938 141.219 117.539C139.798 118.139 138.157 118.439 136.297 118.439C134.437 118.439 132.789 118.139 131.353 117.539C129.917 116.938 128.716 116.096 127.75 115.012C126.783 113.913 126.05 112.631 125.552 111.167C125.054 109.687 124.805 108.083 124.805 106.354ZM132.21 105.893V106.354C132.21 107.248 132.276 108.083 132.408 108.859C132.54 109.636 132.759 110.317 133.067 110.903C133.375 111.474 133.792 111.921 134.319 112.243C134.847 112.565 135.506 112.727 136.297 112.727C137.073 112.727 137.718 112.565 138.23 112.243C138.758 111.921 139.175 111.474 139.483 110.903C139.791 110.317 140.01 109.636 140.142 108.859C140.274 108.083 140.34 107.248 140.34 106.354V105.893C140.34 105.029 140.274 104.216 140.142 103.454C140.01 102.678 139.791 101.997 139.483 101.411C139.175 100.81 138.758 100.341 138.23 100.004C137.703 99.6675 137.044 99.499 136.253 99.499C135.477 99.499 134.825 99.6675 134.297 100.004C133.785 100.341 133.375 100.81 133.067 101.411C132.759 101.997 132.54 102.678 132.408 103.454C132.276 104.216 132.21 105.029 132.21 105.893ZM158.27 110.925L162.664 94.2256H167.3L165.652 102.597L161.302 118H157.588L158.27 110.925ZM156.534 94.2256L159.258 110.793L159.566 118H155.062L149.437 94.2256H156.534ZM171.211 110.441L173.958 94.2256H181.055L175.474 118H170.97L171.211 110.441ZM167.828 94.2256L172.266 110.881L172.947 118H169.19L164.927 102.641L163.345 94.2256H167.828ZM209.466 86.0078V118H201.753V86.0078H209.466ZM219.09 86.0078V91.9624H192.349V86.0078H219.09ZM216.475 106.354V105.893C216.475 104.15 216.724 102.546 217.222 101.081C217.72 99.6016 218.453 98.3198 219.419 97.2358C220.386 96.1519 221.58 95.3096 223.001 94.709C224.422 94.0938 226.062 93.7861 227.923 93.7861C229.798 93.7861 231.446 94.0938 232.867 94.709C234.302 95.3096 235.503 96.1519 236.47 97.2358C237.437 98.3198 238.169 99.6016 238.667 101.081C239.166 102.546 239.415 104.15 239.415 105.893V106.354C239.415 108.083 239.166 109.687 238.667 111.167C238.169 112.631 237.437 113.913 236.47 115.012C235.503 116.096 234.31 116.938 232.889 117.539C231.468 118.139 229.827 118.439 227.967 118.439C226.106 118.439 224.458 118.139 223.023 117.539C221.587 116.938 220.386 116.096 219.419 115.012C218.453 113.913 217.72 112.631 217.222 111.167C216.724 109.687 216.475 108.083 216.475 106.354ZM223.88 105.893V106.354C223.88 107.248 223.946 108.083 224.078 108.859C224.209 109.636 224.429 110.317 224.737 110.903C225.044 111.474 225.462 111.921 225.989 112.243C226.517 112.565 227.176 112.727 227.967 112.727C228.743 112.727 229.388 112.565 229.9 112.243C230.428 111.921 230.845 111.474 231.153 110.903C231.46 110.317 231.68 109.636 231.812 108.859C231.944 108.083 232.01 107.248 232.01 106.354V105.893C232.01 105.029 231.944 104.216 231.812 103.454C231.68 102.678 231.46 101.997 231.153 101.411C230.845 100.81 230.428 100.341 229.9 100.004C229.373 99.6675 228.714 99.499 227.923 99.499C227.146 99.499 226.495 99.6675 225.967 100.004C225.455 100.341 225.044 100.81 224.737 101.411C224.429 101.997 224.209 102.678 224.078 103.454C223.946 104.216 223.88 105.029 223.88 105.893ZM254.268 86.0078H266.858C269.319 86.0078 271.458 86.374 273.274 87.1064C275.091 87.8389 276.49 88.9229 277.471 90.3584C278.467 91.7939 278.965 93.5664 278.965 95.6758C278.965 97.5068 278.68 99.0376 278.108 100.268C277.537 101.499 276.739 102.517 275.713 103.322C274.703 104.113 273.523 104.765 272.176 105.278L269.649 106.706H259.08L259.036 100.751H266.858C267.84 100.751 268.653 100.576 269.297 100.224C269.942 99.8726 270.425 99.3745 270.748 98.73C271.084 98.0708 271.253 97.2871 271.253 96.3789C271.253 95.4561 271.084 94.665 270.748 94.0059C270.411 93.3467 269.913 92.8413 269.253 92.4897C268.609 92.1382 267.811 91.9624 266.858 91.9624H261.98V118H254.268V86.0078ZM271.78 118L264.705 103.85L272.879 103.806L280.042 117.67V118H271.78ZM297.159 112.221V94.2256H304.585V118H297.642L297.159 112.221ZM297.862 107.387L299.795 107.343C299.795 108.94 299.605 110.419 299.224 111.782C298.843 113.129 298.279 114.301 297.532 115.297C296.8 116.293 295.892 117.07 294.808 117.626C293.738 118.168 292.5 118.439 291.094 118.439C289.922 118.439 288.846 118.278 287.864 117.956C286.897 117.619 286.062 117.099 285.359 116.396C284.656 115.678 284.107 114.763 283.711 113.649C283.331 112.521 283.14 111.174 283.14 109.606V94.2256H290.545V109.65C290.545 110.178 290.611 110.632 290.743 111.013C290.875 111.394 291.065 111.716 291.314 111.979C291.563 112.229 291.871 112.419 292.237 112.551C292.618 112.668 293.05 112.727 293.533 112.727C294.646 112.727 295.518 112.492 296.148 112.023C296.778 111.555 297.217 110.917 297.466 110.112C297.73 109.306 297.862 108.398 297.862 107.387ZM315.945 99.3013V118H308.541V94.2256H315.484L315.945 99.3013ZM315.066 105.3L313.331 105.344C313.331 103.527 313.55 101.909 313.99 100.488C314.429 99.0522 315.052 97.8364 315.857 96.8403C316.663 95.8442 317.623 95.0898 318.736 94.5771C319.864 94.0498 321.116 93.7861 322.493 93.7861C323.592 93.7861 324.595 93.9473 325.503 94.2695C326.426 94.5918 327.217 95.1118 327.876 95.8296C328.55 96.5474 329.063 97.4995 329.415 98.686C329.781 99.8579 329.964 101.308 329.964 103.037V118H322.515V103.015C322.515 102.062 322.383 101.337 322.12 100.839C321.856 100.327 321.475 99.9751 320.977 99.7847C320.479 99.5942 319.871 99.499 319.153 99.499C318.392 99.499 317.747 99.6455 317.22 99.9385C316.692 100.231 316.268 100.642 315.945 101.169C315.638 101.682 315.411 102.29 315.264 102.993C315.132 103.696 315.066 104.465 315.066 105.3ZM345.85 107.871H339.544C339.544 106.582 339.632 105.446 339.808 104.465C339.998 103.469 340.32 102.575 340.774 101.784C341.229 100.993 341.844 100.261 342.62 99.5869C343.309 99.0156 343.902 98.4663 344.4 97.939C344.898 97.4116 345.279 96.877 345.542 96.335C345.806 95.793 345.938 95.2144 345.938 94.5991C345.938 93.8374 345.828 93.2148 345.608 92.7314C345.403 92.248 345.088 91.8892 344.664 91.6548C344.253 91.4058 343.733 91.2812 343.104 91.2812C342.591 91.2812 342.107 91.4058 341.653 91.6548C341.214 91.9038 340.855 92.292 340.577 92.8193C340.298 93.332 340.145 94.0132 340.115 94.8628H332.667C332.71 92.6802 333.194 90.9077 334.117 89.5454C335.054 88.1685 336.299 87.165 337.852 86.5352C339.419 85.8906 341.17 85.5684 343.104 85.5684C345.242 85.5684 347.081 85.8979 348.619 86.5571C350.157 87.2163 351.336 88.1978 352.156 89.5015C352.977 90.7905 353.387 92.3799 353.387 94.2695C353.387 95.5293 353.145 96.6279 352.662 97.5654C352.193 98.4883 351.556 99.3525 350.75 100.158C349.959 100.949 349.073 101.799 348.091 102.707C347.242 103.454 346.663 104.216 346.355 104.992C346.048 105.754 345.879 106.713 345.85 107.871ZM338.643 114.55C338.643 113.496 339.024 112.617 339.786 111.914C340.547 111.196 341.536 110.837 342.752 110.837C343.968 110.837 344.957 111.196 345.718 111.914C346.48 112.617 346.861 113.496 346.861 114.55C346.861 115.605 346.48 116.491 345.718 117.209C344.957 117.912 343.968 118.264 342.752 118.264C341.536 118.264 340.547 117.912 339.786 117.209C339.024 116.491 338.643 115.605 338.643 114.55Z" fill="white"/>
</g>
<path d="M1363 15C1363 6.71573 1356.28 0 1348 0H1134V167H1348C1356.28 167 1363 160.284 1363 152V15Z" fill="#00ADB5"/>
<path d="M1260.77 81.3079C1263.96 81.3079 1267.09 82.2553 1269.74 84.0303C1272.4 85.8053 1274.47 88.3282 1275.69 91.2799C1276.92 94.2316 1277.24 97.4796 1276.61 100.613C1275.99 103.747 1274.45 106.625 1272.19 108.884C1269.93 111.143 1267.05 112.682 1263.92 113.305C1260.79 113.928 1257.54 113.608 1254.59 112.386C1251.64 111.163 1249.11 109.093 1247.34 106.436C1245.56 103.78 1244.62 100.657 1244.62 97.4617C1244.62 93.1774 1246.32 89.0686 1249.35 86.0392C1252.38 83.0098 1256.48 81.3079 1260.77 81.3079ZM1260.77 75.9233C1256.51 75.9233 1252.35 77.1865 1248.8 79.5532C1245.26 81.9198 1242.5 85.2837 1240.87 89.2193C1239.24 93.1549 1238.81 97.4856 1239.64 101.664C1240.48 105.842 1242.53 109.679 1245.54 112.692C1248.55 115.704 1252.39 117.755 1256.57 118.586C1260.75 119.417 1265.08 118.991 1269.01 117.361C1272.95 115.73 1276.31 112.97 1278.68 109.428C1281.04 105.886 1282.31 101.722 1282.31 97.4617C1282.31 91.7493 1280.04 86.271 1276 82.2317C1271.96 78.1925 1266.48 75.9233 1260.77 75.9233Z" fill="white"/>
<path d="M1274.23 49H1220.38C1218.96 49 1217.59 49.5673 1216.58 50.5771C1215.57 51.5869 1215 52.9565 1215 54.3846V108.231C1215 109.659 1215.57 111.028 1216.58 112.038C1217.59 113.048 1218.96 113.615 1220.38 113.615H1231.15V108.231H1220.38V70.5384H1279.62V54.3846C1279.62 52.9565 1279.05 51.5869 1278.04 50.5771C1277.03 49.5673 1275.66 49 1274.23 49ZM1220.38 65.1538V54.3846H1274.23V65.1538H1220.38Z" fill="white"/>
<path d="M1255.39 89.3849V105.539L1268.85 97.4618L1255.39 89.3849Z" fill="white"/>
</svg>
