<svg width="1363" height="301" viewBox="0 0 1363 301" fill="none" xmlns="http://www.w3.org/2000/svg">
<rect width="1363" height="301" rx="15" fill="#F0F0F0"/>
<path d="M0 15C0 6.71573 6.71573 0 15 0H37V301H15C6.71573 301 0 294.284 0 286V15Z" fill="#00ADB5"/>
<path d="M116.197 104.898H125.623V130.438C125.623 133.482 124.987 136.06 123.716 138.172C122.445 140.267 120.664 141.852 118.372 142.926C116.08 144 113.386 144.537 110.289 144.537C107.227 144.537 104.533 144 102.205 142.926C99.8955 141.852 98.0872 140.267 96.7803 138.172C95.4912 136.06 94.8467 133.482 94.8467 130.438V104.898H104.3V130.438C104.3 132.049 104.533 133.365 104.998 134.386C105.464 135.388 106.144 136.122 107.039 136.588C107.934 137.053 109.017 137.286 110.289 137.286C111.578 137.286 112.661 137.053 113.538 136.588C114.415 136.122 115.078 135.388 115.525 134.386C115.973 133.365 116.197 132.049 116.197 130.438V104.898ZM143.401 137.555C144.243 137.555 144.959 137.403 145.55 137.098C146.159 136.776 146.615 136.328 146.919 135.755C147.242 135.165 147.394 134.457 147.376 133.634H155.889C155.907 135.818 155.37 137.734 154.278 139.381C153.204 141.01 151.736 142.281 149.874 143.194C148.029 144.09 145.944 144.537 143.616 144.537C141.342 144.537 139.355 144.17 137.654 143.436C135.953 142.684 134.53 141.646 133.384 140.321C132.256 138.978 131.406 137.411 130.833 135.621C130.278 133.831 130 131.888 130 129.793V129.176C130 127.081 130.278 125.139 130.833 123.348C131.406 121.54 132.256 119.973 133.384 118.648C134.53 117.306 135.944 116.267 137.627 115.533C139.328 114.781 141.307 114.405 143.562 114.405C145.979 114.405 148.11 114.862 149.954 115.775C151.816 116.688 153.275 118.013 154.332 119.75C155.388 121.486 155.907 123.59 155.889 126.061H147.376C147.394 125.183 147.26 124.396 146.973 123.697C146.687 122.999 146.239 122.444 145.63 122.032C145.04 121.603 144.279 121.388 143.348 121.388C142.417 121.388 141.665 121.594 141.092 122.005C140.519 122.417 140.08 122.99 139.776 123.724C139.489 124.44 139.292 125.264 139.185 126.195C139.096 127.126 139.051 128.119 139.051 129.176V129.793C139.051 130.868 139.096 131.879 139.185 132.828C139.292 133.759 139.498 134.583 139.803 135.299C140.107 135.997 140.546 136.552 141.119 136.964C141.692 137.358 142.452 137.555 143.401 137.555ZM174.849 136.695V124.718C174.849 123.894 174.733 123.187 174.5 122.596C174.267 122.005 173.9 121.549 173.399 121.227C172.898 120.886 172.226 120.716 171.385 120.716C170.704 120.716 170.123 120.833 169.639 121.065C169.156 121.298 168.789 121.647 168.538 122.113C168.287 122.578 168.162 123.169 168.162 123.885H159.112C159.112 122.542 159.407 121.298 159.998 120.152C160.607 118.989 161.466 117.977 162.576 117.118C163.704 116.258 165.047 115.596 166.604 115.13C168.18 114.647 169.935 114.405 171.868 114.405C174.178 114.405 176.237 114.79 178.045 115.56C179.871 116.33 181.312 117.485 182.369 119.024C183.425 120.546 183.953 122.462 183.953 124.771V136.668C183.953 138.566 184.061 140.007 184.275 140.992C184.49 141.959 184.795 142.809 185.188 143.543V144H176.111C175.682 143.105 175.359 142.013 175.145 140.724C174.948 139.417 174.849 138.074 174.849 136.695ZM175.95 126.249L176.004 131.083H172.002C171.161 131.083 170.445 131.199 169.854 131.432C169.281 131.664 168.816 131.987 168.458 132.398C168.117 132.792 167.867 133.24 167.706 133.741C167.562 134.243 167.491 134.771 167.491 135.326C167.491 135.863 167.616 136.346 167.867 136.776C168.135 137.188 168.493 137.51 168.941 137.743C169.389 137.975 169.89 138.092 170.445 138.092C171.447 138.092 172.298 137.904 172.996 137.528C173.712 137.134 174.258 136.66 174.634 136.104C175.01 135.549 175.198 135.03 175.198 134.547L177.186 138.253C176.827 138.969 176.416 139.694 175.95 140.428C175.503 141.162 174.939 141.843 174.258 142.469C173.596 143.078 172.781 143.579 171.814 143.973C170.848 144.349 169.675 144.537 168.296 144.537C166.506 144.537 164.859 144.17 163.355 143.436C161.869 142.702 160.678 141.681 159.783 140.375C158.888 139.05 158.44 137.528 158.44 135.809C158.44 134.305 158.709 132.962 159.246 131.781C159.801 130.599 160.634 129.597 161.744 128.773C162.854 127.949 164.268 127.323 165.987 126.893C167.706 126.463 169.729 126.249 172.056 126.249H175.95ZM198.106 122.14V144H189.056V114.942H197.515L198.106 122.14ZM206.7 114.728L206.539 123.133C206.181 123.097 205.697 123.053 205.088 122.999C204.48 122.945 203.969 122.918 203.558 122.918C202.501 122.918 201.588 123.044 200.818 123.294C200.066 123.527 199.44 123.885 198.938 124.369C198.455 124.834 198.097 125.425 197.864 126.141C197.649 126.857 197.551 127.69 197.569 128.639L195.931 127.564C195.931 125.613 196.119 123.84 196.495 122.247C196.889 120.636 197.444 119.248 198.16 118.084C198.876 116.903 199.744 115.999 200.765 115.372C201.785 114.728 202.931 114.405 204.202 114.405C204.65 114.405 205.088 114.432 205.518 114.486C205.966 114.54 206.36 114.62 206.7 114.728ZM225.982 137.34V102.75H235.086V144H226.922L225.982 137.34ZM208.15 129.82V129.256C208.15 127.054 208.392 125.049 208.875 123.241C209.358 121.415 210.075 119.848 211.023 118.541C211.972 117.216 213.154 116.196 214.568 115.479C215.983 114.763 217.612 114.405 219.456 114.405C221.103 114.405 222.544 114.79 223.78 115.56C225.015 116.312 226.071 117.368 226.949 118.729C227.826 120.09 228.542 121.683 229.097 123.509C229.652 125.318 230.073 127.269 230.359 129.364V130.035C230.073 132.005 229.652 133.867 229.097 135.621C228.542 137.358 227.826 138.897 226.949 140.24C226.071 141.583 225.006 142.639 223.753 143.409C222.518 144.161 221.067 144.537 219.402 144.537C217.558 144.537 215.929 144.17 214.515 143.436C213.118 142.702 211.945 141.673 210.997 140.348C210.066 139.023 209.358 137.465 208.875 135.675C208.392 133.884 208.15 131.933 208.15 129.82ZM217.2 129.256V129.82C217.2 130.912 217.272 131.924 217.415 132.855C217.558 133.786 217.8 134.61 218.14 135.326C218.498 136.024 218.964 136.57 219.537 136.964C220.127 137.358 220.853 137.555 221.712 137.555C222.876 137.555 223.833 137.277 224.585 136.722C225.355 136.167 225.919 135.379 226.277 134.359C226.653 133.338 226.814 132.139 226.761 130.76V128.639C226.797 127.457 226.716 126.419 226.519 125.523C226.322 124.61 226.009 123.849 225.579 123.241C225.167 122.632 224.639 122.175 223.995 121.871C223.368 121.549 222.625 121.388 221.766 121.388C220.924 121.388 220.208 121.585 219.617 121.979C219.044 122.372 218.579 122.927 218.221 123.644C217.863 124.342 217.603 125.174 217.442 126.141C217.281 127.09 217.2 128.128 217.2 129.256Z" fill="black"/>
<path d="M110.816 65.2515V69.2505H97.8276V65.2515H110.816ZM99.3486 55.1172V80H94.2217V55.1172H99.3486ZM114.473 55.1172V80H109.363V55.1172H114.473ZM128.606 75.8301V67.5928C128.606 67.0003 128.51 66.4933 128.316 66.0718C128.122 65.6388 127.82 65.3027 127.41 65.0635C127.011 64.8242 126.493 64.7046 125.855 64.7046C125.308 64.7046 124.835 64.8014 124.437 64.9951C124.038 65.1774 123.73 65.4451 123.514 65.7983C123.297 66.1401 123.189 66.5446 123.189 67.0117H118.267C118.267 66.2256 118.449 65.4793 118.814 64.7729C119.179 64.0666 119.708 63.4456 120.403 62.9102C121.098 62.3633 121.924 61.936 122.881 61.6284C123.85 61.3208 124.932 61.167 126.128 61.167C127.564 61.167 128.84 61.4062 129.957 61.8848C131.073 62.3633 131.95 63.0811 132.588 64.0381C133.238 64.9951 133.562 66.1914 133.562 67.627V75.5396C133.562 76.5535 133.625 77.3853 133.75 78.0347C133.876 78.6727 134.058 79.231 134.297 79.7095V80H129.324C129.085 79.4987 128.903 78.8721 128.777 78.1201C128.663 77.3568 128.606 76.5934 128.606 75.8301ZM129.256 68.7378L129.29 71.5234H126.539C125.889 71.5234 125.325 71.5975 124.847 71.7456C124.368 71.8937 123.975 72.1045 123.667 72.3779C123.36 72.64 123.132 72.9476 122.984 73.3008C122.847 73.654 122.779 74.0413 122.779 74.4629C122.779 74.8844 122.876 75.2661 123.069 75.6079C123.263 75.9383 123.542 76.2004 123.907 76.394C124.271 76.5763 124.699 76.6675 125.188 76.6675C125.929 76.6675 126.573 76.5194 127.12 76.2231C127.667 75.9269 128.088 75.5623 128.384 75.1294C128.692 74.6965 128.851 74.2863 128.863 73.8989L130.162 75.9839C129.979 76.451 129.729 76.9352 129.41 77.4365C129.102 77.9378 128.709 78.4106 128.23 78.855C127.752 79.2879 127.177 79.6468 126.504 79.9316C125.832 80.2051 125.035 80.3418 124.112 80.3418C122.938 80.3418 121.873 80.1082 120.916 79.6411C119.97 79.1626 119.218 78.5075 118.66 77.6758C118.113 76.8327 117.84 75.8757 117.84 74.8047C117.84 73.8363 118.022 72.9761 118.387 72.2241C118.751 71.4722 119.287 70.8398 119.993 70.3271C120.711 69.8031 121.605 69.41 122.676 69.1479C123.747 68.8745 124.989 68.7378 126.402 68.7378H129.256ZM147.354 74.8901C147.354 74.5369 147.251 74.2179 147.046 73.9331C146.841 73.6483 146.46 73.3862 145.901 73.147C145.354 72.8963 144.563 72.6685 143.526 72.4634C142.592 72.2583 141.72 72.002 140.911 71.6943C140.114 71.3753 139.419 70.9937 138.826 70.5493C138.245 70.105 137.789 69.5809 137.459 68.9771C137.129 68.3618 136.963 67.6611 136.963 66.875C136.963 66.1003 137.129 65.3711 137.459 64.6875C137.801 64.0039 138.285 63.4001 138.912 62.876C139.55 62.3405 140.324 61.9246 141.236 61.6284C142.159 61.3208 143.195 61.167 144.346 61.167C145.953 61.167 147.331 61.4233 148.482 61.936C149.644 62.4487 150.533 63.1551 151.148 64.0552C151.775 64.9438 152.088 65.9578 152.088 67.0972H147.166C147.166 66.6187 147.063 66.1914 146.858 65.8154C146.665 65.4281 146.357 65.1261 145.936 64.9097C145.525 64.6818 144.99 64.5679 144.329 64.5679C143.782 64.5679 143.309 64.6647 142.911 64.8584C142.512 65.0407 142.204 65.2913 141.988 65.6104C141.783 65.918 141.68 66.2598 141.68 66.6357C141.68 66.9206 141.737 67.1769 141.851 67.4048C141.976 67.6213 142.176 67.8206 142.449 68.0029C142.723 68.1852 143.076 68.3561 143.509 68.5156C143.953 68.6637 144.5 68.8005 145.149 68.9258C146.482 69.1992 147.673 69.5581 148.721 70.0024C149.769 70.4354 150.601 71.0278 151.216 71.7798C151.832 72.5203 152.139 73.4945 152.139 74.7021C152.139 75.5225 151.957 76.2744 151.592 76.958C151.228 77.6416 150.704 78.2397 150.02 78.7524C149.336 79.2537 148.516 79.6468 147.559 79.9316C146.613 80.2051 145.548 80.3418 144.363 80.3418C142.643 80.3418 141.185 80.0342 139.988 79.4189C138.803 78.8037 137.903 78.0233 137.288 77.0776C136.684 76.1206 136.382 75.1408 136.382 74.1382H141.048C141.071 74.8104 141.242 75.3516 141.561 75.7617C141.891 76.1719 142.307 76.4681 142.808 76.6504C143.321 76.8327 143.873 76.9238 144.466 76.9238C145.104 76.9238 145.634 76.8384 146.055 76.6675C146.477 76.4852 146.796 76.2459 147.012 75.9497C147.24 75.6421 147.354 75.2889 147.354 74.8901ZM165.333 74.8901C165.333 74.5369 165.23 74.2179 165.025 73.9331C164.82 73.6483 164.438 73.3862 163.88 73.147C163.333 72.8963 162.541 72.6685 161.504 72.4634C160.57 72.2583 159.699 72.002 158.89 71.6943C158.092 71.3753 157.397 70.9937 156.805 70.5493C156.224 70.105 155.768 69.5809 155.438 68.9771C155.107 68.3618 154.942 67.6611 154.942 66.875C154.942 66.1003 155.107 65.3711 155.438 64.6875C155.779 64.0039 156.264 63.4001 156.89 62.876C157.528 62.3405 158.303 61.9246 159.214 61.6284C160.137 61.3208 161.174 61.167 162.325 61.167C163.931 61.167 165.31 61.4233 166.46 61.936C167.623 62.4487 168.511 63.1551 169.126 64.0552C169.753 64.9438 170.066 65.9578 170.066 67.0972H165.145C165.145 66.6187 165.042 66.1914 164.837 65.8154C164.643 65.4281 164.336 65.1261 163.914 64.9097C163.504 64.6818 162.968 64.5679 162.308 64.5679C161.761 64.5679 161.288 64.6647 160.889 64.8584C160.49 65.0407 160.183 65.2913 159.966 65.6104C159.761 65.918 159.659 66.2598 159.659 66.6357C159.659 66.9206 159.716 67.1769 159.83 67.4048C159.955 67.6213 160.154 67.8206 160.428 68.0029C160.701 68.1852 161.054 68.3561 161.487 68.5156C161.932 68.6637 162.479 68.8005 163.128 68.9258C164.461 69.1992 165.652 69.5581 166.7 70.0024C167.748 70.4354 168.58 71.0278 169.195 71.7798C169.81 72.5203 170.118 73.4945 170.118 74.7021C170.118 75.5225 169.935 76.2744 169.571 76.958C169.206 77.6416 168.682 78.2397 167.999 78.7524C167.315 79.2537 166.495 79.6468 165.538 79.9316C164.592 80.2051 163.527 80.3418 162.342 80.3418C160.621 80.3418 159.163 80.0342 157.967 79.4189C156.782 78.8037 155.882 78.0233 155.267 77.0776C154.663 76.1206 154.361 75.1408 154.361 74.1382H159.026C159.049 74.8104 159.22 75.3516 159.539 75.7617C159.869 76.1719 160.285 76.4681 160.787 76.6504C161.299 76.8327 161.852 76.9238 162.444 76.9238C163.082 76.9238 163.612 76.8384 164.034 76.6675C164.455 76.4852 164.774 76.2459 164.991 75.9497C165.219 75.6421 165.333 75.2889 165.333 74.8901ZM183.294 75.8301V67.5928C183.294 67.0003 183.197 66.4933 183.003 66.0718C182.81 65.6388 182.508 65.3027 182.098 65.0635C181.699 64.8242 181.181 64.7046 180.542 64.7046C179.996 64.7046 179.523 64.8014 179.124 64.9951C178.725 65.1774 178.418 65.4451 178.201 65.7983C177.985 66.1401 177.876 66.5446 177.876 67.0117H172.955C172.955 66.2256 173.137 65.4793 173.501 64.7729C173.866 64.0666 174.396 63.4456 175.091 62.9102C175.786 62.3633 176.612 61.936 177.569 61.6284C178.537 61.3208 179.62 61.167 180.816 61.167C182.251 61.167 183.528 61.4062 184.644 61.8848C185.761 62.3633 186.638 63.0811 187.276 64.0381C187.925 64.9951 188.25 66.1914 188.25 67.627V75.5396C188.25 76.5535 188.313 77.3853 188.438 78.0347C188.563 78.6727 188.746 79.231 188.985 79.7095V80H184.012C183.772 79.4987 183.59 78.8721 183.465 78.1201C183.351 77.3568 183.294 76.5934 183.294 75.8301ZM183.943 68.7378L183.978 71.5234H181.226C180.577 71.5234 180.013 71.5975 179.534 71.7456C179.056 71.8937 178.663 72.1045 178.355 72.3779C178.047 72.64 177.819 72.9476 177.671 73.3008C177.535 73.654 177.466 74.0413 177.466 74.4629C177.466 74.8844 177.563 75.2661 177.757 75.6079C177.951 75.9383 178.23 76.2004 178.594 76.394C178.959 76.5763 179.386 76.6675 179.876 76.6675C180.617 76.6675 181.26 76.5194 181.807 76.2231C182.354 75.9269 182.776 75.5623 183.072 75.1294C183.379 74.6965 183.539 74.2863 183.55 73.8989L184.849 75.9839C184.667 76.451 184.416 76.9352 184.097 77.4365C183.79 77.9378 183.396 78.4106 182.918 78.855C182.439 79.2879 181.864 79.6468 181.192 79.9316C180.52 80.2051 179.722 80.3418 178.799 80.3418C177.626 80.3418 176.561 80.1082 175.604 79.6411C174.658 79.1626 173.906 78.5075 173.348 77.6758C172.801 76.8327 172.527 75.8757 172.527 74.8047C172.527 73.8363 172.71 72.9761 173.074 72.2241C173.439 71.4722 173.974 70.8398 174.681 70.3271C175.398 69.8031 176.293 69.41 177.364 69.1479C178.435 68.8745 179.677 68.7378 181.089 68.7378H183.943ZM196.863 65.4565V80H191.941V61.5088H196.556L196.863 65.4565ZM196.146 70.105H194.812C194.812 68.7378 194.989 67.5073 195.342 66.4136C195.695 65.3084 196.191 64.3685 196.829 63.5938C197.467 62.8076 198.225 62.2095 199.102 61.7993C199.991 61.3778 200.982 61.167 202.076 61.167C202.942 61.167 203.733 61.2923 204.451 61.543C205.169 61.7936 205.784 62.1924 206.297 62.7393C206.821 63.2861 207.22 64.0096 207.493 64.9097C207.778 65.8097 207.92 66.9092 207.92 68.208V80H202.964V68.1909C202.964 67.3706 202.85 66.7326 202.623 66.2769C202.395 65.8211 202.059 65.5021 201.614 65.3198C201.181 65.1261 200.646 65.0293 200.008 65.0293C199.347 65.0293 198.772 65.1603 198.282 65.4224C197.803 65.6844 197.404 66.049 197.085 66.5161C196.778 66.9718 196.544 67.5073 196.385 68.1226C196.225 68.7378 196.146 69.3986 196.146 70.105ZM225.813 55.1172V80H220.687V55.1172H225.813ZM240.716 55.1172L230.855 67.4048L225.164 73.5229L224.241 68.6694L228.086 63.4058L234.427 55.1172H240.716ZM234.888 80L227.557 68.4985L231.351 65.3198L240.955 80H234.888ZM247.432 53.75V80H242.51V53.75H247.432ZM246.731 70.105H245.381C245.393 68.8175 245.564 67.6326 245.894 66.5503C246.224 65.4565 246.697 64.5109 247.312 63.7134C247.928 62.9045 248.663 62.2778 249.517 61.8335C250.383 61.3892 251.34 61.167 252.388 61.167C253.3 61.167 254.126 61.298 254.866 61.5601C255.618 61.8107 256.262 62.2209 256.797 62.7905C257.344 63.3488 257.766 64.0837 258.062 64.9951C258.358 65.9066 258.506 67.0117 258.506 68.3105V80H253.55V68.2764C253.55 67.4561 253.431 66.8123 253.191 66.3452C252.964 65.8667 252.627 65.5306 252.183 65.3369C251.75 65.1318 251.215 65.0293 250.577 65.0293C249.87 65.0293 249.266 65.1603 248.765 65.4224C248.275 65.6844 247.882 66.049 247.586 66.5161C247.29 66.9718 247.073 67.5073 246.937 68.1226C246.8 68.7378 246.731 69.3986 246.731 70.105ZM272.229 75.8301V67.5928C272.229 67.0003 272.133 66.4933 271.939 66.0718C271.745 65.6388 271.443 65.3027 271.033 65.0635C270.634 64.8242 270.116 64.7046 269.478 64.7046C268.931 64.7046 268.458 64.8014 268.06 64.9951C267.661 65.1774 267.353 65.4451 267.137 65.7983C266.92 66.1401 266.812 66.5446 266.812 67.0117H261.89C261.89 66.2256 262.072 65.4793 262.437 64.7729C262.802 64.0666 263.331 63.4456 264.026 62.9102C264.721 62.3633 265.547 61.936 266.504 61.6284C267.473 61.3208 268.555 61.167 269.751 61.167C271.187 61.167 272.463 61.4062 273.58 61.8848C274.696 62.3633 275.573 63.0811 276.211 64.0381C276.861 64.9951 277.186 66.1914 277.186 67.627V75.5396C277.186 76.5535 277.248 77.3853 277.374 78.0347C277.499 78.6727 277.681 79.231 277.92 79.7095V80H272.947C272.708 79.4987 272.526 78.8721 272.4 78.1201C272.286 77.3568 272.229 76.5934 272.229 75.8301ZM272.879 68.7378L272.913 71.5234H270.162C269.512 71.5234 268.948 71.5975 268.47 71.7456C267.991 71.8937 267.598 72.1045 267.291 72.3779C266.983 72.64 266.755 72.9476 266.607 73.3008C266.47 73.654 266.402 74.0413 266.402 74.4629C266.402 74.8844 266.499 75.2661 266.692 75.6079C266.886 75.9383 267.165 76.2004 267.53 76.394C267.894 76.5763 268.322 76.6675 268.812 76.6675C269.552 76.6675 270.196 76.5194 270.743 76.2231C271.29 75.9269 271.711 75.5623 272.007 75.1294C272.315 74.6965 272.474 74.2863 272.486 73.8989L273.785 75.9839C273.602 76.451 273.352 76.9352 273.033 77.4365C272.725 77.9378 272.332 78.4106 271.854 78.855C271.375 79.2879 270.8 79.6468 270.127 79.9316C269.455 80.2051 268.658 80.3418 267.735 80.3418C266.561 80.3418 265.496 80.1082 264.539 79.6411C263.593 79.1626 262.841 78.5075 262.283 77.6758C261.736 76.8327 261.463 75.8757 261.463 74.8047C261.463 73.8363 261.645 72.9761 262.01 72.2241C262.374 71.4722 262.91 70.8398 263.616 70.3271C264.334 69.8031 265.228 69.41 266.299 69.1479C267.37 68.8745 268.612 68.7378 270.025 68.7378H272.879ZM286.175 53.75V80H281.236V53.75H286.175ZM295.438 61.5088V80H290.499V61.5088H295.438ZM290.191 56.6895C290.191 55.9717 290.442 55.3792 290.943 54.9121C291.444 54.445 292.116 54.2114 292.959 54.2114C293.791 54.2114 294.458 54.445 294.959 54.9121C295.472 55.3792 295.728 55.9717 295.728 56.6895C295.728 57.4072 295.472 57.9997 294.959 58.4668C294.458 58.9339 293.791 59.1675 292.959 59.1675C292.116 59.1675 291.444 58.9339 290.943 58.4668C290.442 57.9997 290.191 57.4072 290.191 56.6895ZM304.7 53.75V80H299.761V53.75H304.7Z" fill="#888888"/>
<rect x="92" y="181" width="1179" height="80" rx="13.3333" fill="#CCCCCC"/>
<rect x="107" y="196.333" width="208" height="49.3333" rx="4.66667" fill="#888888" stroke="#888888" stroke-width="4"/>
<path d="M150.833 213.167H156.802C157.969 213.167 158.983 213.34 159.844 213.687C160.705 214.035 161.368 214.549 161.833 215.229C162.306 215.91 162.542 216.75 162.542 217.75C162.542 218.618 162.406 219.344 162.135 219.927C161.865 220.51 161.486 220.993 161 221.375C160.521 221.75 159.962 222.059 159.323 222.302L158.125 222.979H153.115L153.094 220.156H156.802C157.267 220.156 157.653 220.073 157.958 219.906C158.264 219.74 158.493 219.503 158.646 219.198C158.806 218.885 158.885 218.514 158.885 218.083C158.885 217.646 158.806 217.271 158.646 216.958C158.486 216.646 158.25 216.406 157.937 216.24C157.632 216.073 157.253 215.99 156.802 215.99H154.49V228.333H150.833V213.167ZM159.135 228.333L155.781 221.625L159.656 221.604L163.052 228.177V228.333H159.135ZM170.042 228.542C169.125 228.542 168.306 228.399 167.583 228.115C166.861 227.823 166.25 227.424 165.75 226.917C165.257 226.41 164.878 225.826 164.615 225.167C164.358 224.507 164.229 223.809 164.229 223.073V222.677C164.229 221.851 164.344 221.087 164.573 220.385C164.802 219.677 165.142 219.059 165.594 218.531C166.045 218.003 166.611 217.594 167.292 217.302C167.972 217.003 168.764 216.854 169.667 216.854C170.465 216.854 171.181 216.983 171.813 217.24C172.444 217.497 172.979 217.865 173.417 218.344C173.861 218.823 174.198 219.403 174.427 220.083C174.663 220.764 174.781 221.528 174.781 222.375V223.802H165.573V221.604H171.354V221.333C171.361 220.958 171.295 220.639 171.156 220.375C171.024 220.111 170.83 219.91 170.573 219.771C170.316 219.632 170.003 219.562 169.635 219.562C169.253 219.562 168.938 219.646 168.688 219.812C168.444 219.979 168.253 220.208 168.115 220.5C167.983 220.785 167.889 221.115 167.833 221.49C167.778 221.865 167.75 222.26 167.75 222.677V223.073C167.75 223.49 167.806 223.868 167.917 224.208C168.035 224.549 168.201 224.84 168.417 225.083C168.639 225.319 168.903 225.503 169.208 225.635C169.521 225.767 169.875 225.833 170.271 225.833C170.75 225.833 171.222 225.743 171.688 225.562C172.153 225.382 172.552 225.083 172.885 224.667L174.479 226.562C174.25 226.889 173.924 227.205 173.5 227.51C173.083 227.816 172.583 228.066 172 228.26C171.417 228.448 170.764 228.542 170.042 228.542ZM182.063 225.5V220.854C182.063 220.535 182.017 220.26 181.927 220.031C181.837 219.802 181.694 219.625 181.5 219.5C181.306 219.368 181.045 219.302 180.719 219.302C180.455 219.302 180.229 219.347 180.042 219.437C179.854 219.528 179.712 219.663 179.615 219.844C179.517 220.024 179.469 220.253 179.469 220.531H175.958C175.958 220.01 176.073 219.528 176.302 219.083C176.538 218.632 176.872 218.24 177.302 217.906C177.74 217.573 178.26 217.316 178.865 217.135C179.476 216.948 180.156 216.854 180.906 216.854C181.802 216.854 182.601 217.003 183.302 217.302C184.01 217.601 184.569 218.049 184.979 218.646C185.389 219.236 185.594 219.979 185.594 220.875V225.49C185.594 226.226 185.635 226.785 185.719 227.167C185.802 227.542 185.92 227.872 186.073 228.156V228.333H182.552C182.385 227.986 182.26 227.562 182.177 227.062C182.101 226.556 182.063 226.035 182.063 225.5ZM182.49 221.448L182.51 223.323H180.958C180.632 223.323 180.354 223.368 180.125 223.458C179.903 223.549 179.722 223.674 179.583 223.833C179.451 223.986 179.354 224.16 179.292 224.354C179.236 224.549 179.208 224.753 179.208 224.969C179.208 225.177 179.257 225.365 179.354 225.531C179.458 225.691 179.597 225.816 179.771 225.906C179.944 225.997 180.139 226.042 180.354 226.042C180.743 226.042 181.073 225.969 181.344 225.823C181.622 225.67 181.833 225.486 181.979 225.271C182.125 225.056 182.198 224.854 182.198 224.667L182.969 226.104C182.83 226.382 182.67 226.663 182.49 226.948C182.316 227.233 182.097 227.497 181.833 227.74C181.576 227.976 181.26 228.17 180.885 228.323C180.51 228.469 180.056 228.542 179.521 228.542C178.826 228.542 178.188 228.399 177.604 228.115C177.028 227.83 176.566 227.434 176.219 226.927C175.872 226.413 175.698 225.823 175.698 225.156C175.698 224.573 175.802 224.052 176.01 223.594C176.226 223.135 176.549 222.747 176.979 222.427C177.41 222.108 177.958 221.865 178.625 221.698C179.292 221.531 180.076 221.448 180.979 221.448H182.49ZM192.302 225.833C192.628 225.833 192.906 225.774 193.135 225.656C193.372 225.531 193.549 225.358 193.667 225.135C193.792 224.906 193.851 224.632 193.844 224.312H197.146C197.153 225.16 196.944 225.903 196.521 226.542C196.104 227.174 195.535 227.667 194.812 228.021C194.097 228.368 193.288 228.542 192.385 228.542C191.503 228.542 190.733 228.399 190.073 228.115C189.413 227.823 188.861 227.42 188.417 226.906C187.979 226.385 187.649 225.778 187.427 225.083C187.212 224.389 187.104 223.635 187.104 222.823V222.583C187.104 221.771 187.212 221.017 187.427 220.323C187.649 219.622 187.979 219.014 188.417 218.5C188.861 217.979 189.41 217.576 190.062 217.292C190.722 217 191.49 216.854 192.365 216.854C193.302 216.854 194.128 217.031 194.844 217.385C195.566 217.74 196.132 218.253 196.542 218.927C196.951 219.601 197.153 220.417 197.146 221.375H193.844C193.851 221.035 193.799 220.729 193.687 220.458C193.576 220.187 193.403 219.972 193.167 219.812C192.937 219.646 192.642 219.562 192.281 219.562C191.92 219.562 191.628 219.642 191.406 219.802C191.184 219.962 191.014 220.184 190.896 220.469C190.785 220.747 190.708 221.066 190.667 221.427C190.632 221.788 190.615 222.174 190.615 222.583V222.823C190.615 223.24 190.632 223.632 190.667 224C190.708 224.361 190.788 224.681 190.906 224.958C191.024 225.229 191.194 225.444 191.417 225.604C191.639 225.757 191.934 225.833 192.302 225.833ZM204.583 217.062V219.5H197.792V217.062H204.583ZM199.219 214.26H202.729V224.656C202.729 224.955 202.764 225.187 202.833 225.354C202.903 225.514 203.021 225.628 203.188 225.698C203.361 225.76 203.59 225.792 203.875 225.792C204.076 225.792 204.243 225.788 204.375 225.781C204.507 225.767 204.632 225.75 204.75 225.729V228.24C204.451 228.337 204.139 228.41 203.813 228.458C203.486 228.514 203.139 228.542 202.771 228.542C202.021 228.542 201.378 228.424 200.844 228.187C200.316 227.951 199.913 227.58 199.635 227.073C199.358 226.566 199.219 225.906 199.219 225.094V214.26ZM224.125 213.167V228.333H220.479L215.115 218.896V228.333H211.458V213.167H215.115L220.479 222.604V213.167H224.125ZM232.125 225.5V220.854C232.125 220.535 232.08 220.26 231.99 220.031C231.899 219.802 231.757 219.625 231.563 219.5C231.368 219.368 231.108 219.302 230.781 219.302C230.517 219.302 230.292 219.347 230.104 219.437C229.917 219.528 229.774 219.663 229.677 219.844C229.58 220.024 229.531 220.253 229.531 220.531H226.021C226.021 220.01 226.135 219.528 226.365 219.083C226.601 218.632 226.934 218.24 227.365 217.906C227.802 217.573 228.323 217.316 228.927 217.135C229.538 216.948 230.219 216.854 230.969 216.854C231.865 216.854 232.663 217.003 233.365 217.302C234.073 217.601 234.632 218.049 235.042 218.646C235.451 219.236 235.656 219.979 235.656 220.875V225.49C235.656 226.226 235.698 226.785 235.781 227.167C235.865 227.542 235.983 227.872 236.135 228.156V228.333H232.615C232.448 227.986 232.323 227.562 232.24 227.062C232.163 226.556 232.125 226.035 232.125 225.5ZM232.552 221.448L232.573 223.323H231.021C230.694 223.323 230.417 223.368 230.188 223.458C229.965 223.549 229.785 223.674 229.646 223.833C229.514 223.986 229.417 224.16 229.354 224.354C229.299 224.549 229.271 224.753 229.271 224.969C229.271 225.177 229.319 225.365 229.417 225.531C229.521 225.691 229.66 225.816 229.833 225.906C230.007 225.997 230.201 226.042 230.417 226.042C230.806 226.042 231.135 225.969 231.406 225.823C231.684 225.67 231.896 225.486 232.042 225.271C232.188 225.056 232.26 224.854 232.26 224.667L233.031 226.104C232.892 226.382 232.733 226.663 232.552 226.948C232.378 227.233 232.16 227.497 231.896 227.74C231.639 227.976 231.323 228.17 230.948 228.323C230.573 228.469 230.118 228.542 229.583 228.542C228.889 228.542 228.25 228.399 227.667 228.115C227.09 227.83 226.628 227.434 226.281 226.927C225.934 226.413 225.76 225.823 225.76 225.156C225.76 224.573 225.865 224.052 226.073 223.594C226.288 223.135 226.611 222.747 227.042 222.427C227.472 222.108 228.021 221.865 228.688 221.698C229.354 221.531 230.139 221.448 231.042 221.448H232.552ZM243.542 217.062V219.5H236.75V217.062H243.542ZM238.177 214.26H241.687V224.656C241.687 224.955 241.722 225.187 241.792 225.354C241.861 225.514 241.979 225.628 242.146 225.698C242.319 225.76 242.549 225.792 242.833 225.792C243.035 225.792 243.201 225.788 243.333 225.781C243.465 225.767 243.59 225.75 243.708 225.729V228.24C243.41 228.337 243.097 228.41 242.771 228.458C242.444 228.514 242.097 228.542 241.729 228.542C240.979 228.542 240.337 228.424 239.802 228.187C239.274 227.951 238.872 227.58 238.594 227.073C238.316 226.566 238.177 225.906 238.177 225.094V214.26ZM248.646 217.062V228.333H245.125V217.062H248.646ZM244.917 214.156C244.917 213.656 245.097 213.247 245.458 212.927C245.819 212.608 246.288 212.448 246.865 212.448C247.441 212.448 247.91 212.608 248.271 212.927C248.632 213.247 248.813 213.656 248.813 214.156C248.813 214.656 248.632 215.066 248.271 215.385C247.91 215.705 247.441 215.865 246.865 215.865C246.288 215.865 245.819 215.705 245.458 215.385C245.097 215.066 244.917 214.656 244.917 214.156ZM254.875 225.927L257.094 217.062H260.792L257.104 228.333H254.917L254.875 225.927ZM253.563 217.062L255.75 225.927L255.729 228.333H253.531L249.854 217.062H253.563ZM267.146 228.542C266.229 228.542 265.41 228.399 264.688 228.115C263.965 227.823 263.354 227.424 262.854 226.917C262.361 226.41 261.983 225.826 261.719 225.167C261.462 224.507 261.333 223.809 261.333 223.073V222.677C261.333 221.851 261.448 221.087 261.677 220.385C261.906 219.677 262.247 219.059 262.698 218.531C263.149 218.003 263.715 217.594 264.396 217.302C265.076 217.003 265.868 216.854 266.771 216.854C267.569 216.854 268.285 216.983 268.917 217.24C269.549 217.497 270.083 217.865 270.521 218.344C270.965 218.823 271.302 219.403 271.531 220.083C271.767 220.764 271.885 221.528 271.885 222.375V223.802H262.677V221.604H268.458V221.333C268.465 220.958 268.399 220.639 268.26 220.375C268.128 220.111 267.934 219.91 267.677 219.771C267.42 219.632 267.108 219.562 266.74 219.562C266.358 219.562 266.042 219.646 265.792 219.812C265.549 219.979 265.358 220.208 265.219 220.5C265.087 220.785 264.993 221.115 264.938 221.49C264.882 221.865 264.854 222.26 264.854 222.677V223.073C264.854 223.49 264.91 223.868 265.021 224.208C265.139 224.549 265.306 224.84 265.521 225.083C265.743 225.319 266.007 225.503 266.313 225.635C266.625 225.767 266.979 225.833 267.375 225.833C267.854 225.833 268.326 225.743 268.792 225.562C269.257 225.382 269.656 225.083 269.99 224.667L271.583 226.562C271.354 226.889 271.028 227.205 270.604 227.51C270.188 227.816 269.688 228.066 269.104 228.26C268.521 228.448 267.868 228.542 267.146 228.542Z" fill="white"/>
<rect x="339" y="196.333" width="208" height="49.3333" rx="4.66667" fill="#888888" stroke="#888888" stroke-width="4"/>
<path d="M418.844 213.167V228.333H415.198L409.833 218.896V228.333H406.177V213.167H409.833L415.198 222.604V213.167H418.844ZM420.552 222.812V222.594C420.552 221.767 420.67 221.007 420.906 220.312C421.142 219.611 421.49 219.003 421.948 218.49C422.406 217.976 422.972 217.576 423.646 217.292C424.319 217 425.097 216.854 425.979 216.854C426.868 216.854 427.649 217 428.323 217.292C429.003 217.576 429.573 217.976 430.031 218.49C430.49 219.003 430.837 219.611 431.073 220.312C431.309 221.007 431.427 221.767 431.427 222.594V222.812C431.427 223.632 431.309 224.392 431.073 225.094C430.837 225.788 430.49 226.396 430.031 226.917C429.573 227.431 429.007 227.83 428.333 228.115C427.66 228.399 426.882 228.542 426 228.542C425.118 228.542 424.337 228.399 423.656 228.115C422.976 227.83 422.406 227.431 421.948 226.917C421.49 226.396 421.142 225.788 420.906 225.094C420.67 224.392 420.552 223.632 420.552 222.812ZM424.062 222.594V222.812C424.062 223.236 424.094 223.632 424.156 224C424.219 224.368 424.323 224.691 424.469 224.969C424.615 225.24 424.812 225.451 425.062 225.604C425.312 225.757 425.625 225.833 426 225.833C426.368 225.833 426.674 225.757 426.917 225.604C427.167 225.451 427.365 225.24 427.51 224.969C427.656 224.691 427.76 224.368 427.823 224C427.885 223.632 427.917 223.236 427.917 222.812V222.594C427.917 222.184 427.885 221.799 427.823 221.437C427.76 221.069 427.656 220.747 427.51 220.469C427.365 220.184 427.167 219.962 426.917 219.802C426.667 219.642 426.354 219.562 425.979 219.562C425.611 219.562 425.302 219.642 425.052 219.802C424.809 219.962 424.615 220.184 424.469 220.469C424.323 220.747 424.219 221.069 424.156 221.437C424.094 221.799 424.062 222.184 424.062 222.594ZM439.469 225.75V212.333H443V228.333H439.833L439.469 225.75ZM432.552 222.833V222.615C432.552 221.76 432.646 220.983 432.833 220.281C433.021 219.573 433.299 218.965 433.667 218.458C434.035 217.944 434.493 217.549 435.042 217.271C435.59 216.993 436.222 216.854 436.938 216.854C437.576 216.854 438.135 217.003 438.615 217.302C439.094 217.594 439.503 218.003 439.844 218.531C440.184 219.059 440.462 219.677 440.677 220.385C440.892 221.087 441.056 221.844 441.167 222.656V222.917C441.056 223.681 440.892 224.403 440.677 225.083C440.462 225.757 440.184 226.354 439.844 226.875C439.503 227.396 439.09 227.806 438.604 228.104C438.125 228.396 437.563 228.542 436.917 228.542C436.201 228.542 435.569 228.399 435.021 228.115C434.479 227.83 434.024 227.431 433.656 226.917C433.295 226.403 433.021 225.799 432.833 225.104C432.646 224.41 432.552 223.653 432.552 222.833ZM436.063 222.615V222.833C436.063 223.257 436.09 223.649 436.146 224.01C436.201 224.372 436.295 224.691 436.427 224.969C436.566 225.24 436.747 225.451 436.969 225.604C437.198 225.757 437.479 225.833 437.813 225.833C438.264 225.833 438.635 225.726 438.927 225.51C439.226 225.295 439.444 224.99 439.583 224.594C439.729 224.198 439.792 223.733 439.771 223.198V222.375C439.785 221.917 439.753 221.514 439.677 221.167C439.601 220.812 439.479 220.517 439.313 220.281C439.153 220.045 438.948 219.868 438.698 219.75C438.455 219.625 438.167 219.562 437.833 219.562C437.507 219.562 437.229 219.639 437 219.792C436.778 219.944 436.597 220.16 436.458 220.437C436.319 220.708 436.219 221.031 436.156 221.406C436.094 221.774 436.063 222.177 436.063 222.615ZM450.448 228.542C449.531 228.542 448.712 228.399 447.99 228.115C447.267 227.823 446.656 227.424 446.156 226.917C445.663 226.41 445.285 225.826 445.021 225.167C444.764 224.507 444.635 223.809 444.635 223.073V222.677C444.635 221.851 444.75 221.087 444.979 220.385C445.208 219.677 445.549 219.059 446 218.531C446.451 218.003 447.017 217.594 447.698 217.302C448.378 217.003 449.17 216.854 450.073 216.854C450.872 216.854 451.587 216.983 452.219 217.24C452.851 217.497 453.385 217.865 453.823 218.344C454.267 218.823 454.604 219.403 454.833 220.083C455.069 220.764 455.188 221.528 455.188 222.375V223.802H445.979V221.604H451.76V221.333C451.767 220.958 451.701 220.639 451.563 220.375C451.431 220.111 451.236 219.91 450.979 219.771C450.722 219.632 450.41 219.562 450.042 219.562C449.66 219.562 449.344 219.646 449.094 219.812C448.851 219.979 448.66 220.208 448.521 220.5C448.389 220.785 448.295 221.115 448.24 221.49C448.184 221.865 448.156 222.26 448.156 222.677V223.073C448.156 223.49 448.212 223.868 448.323 224.208C448.441 224.549 448.608 224.84 448.823 225.083C449.045 225.319 449.309 225.503 449.615 225.635C449.927 225.767 450.281 225.833 450.677 225.833C451.156 225.833 451.628 225.743 452.094 225.562C452.559 225.382 452.958 225.083 453.292 224.667L454.885 226.562C454.656 226.889 454.33 227.205 453.906 227.51C453.49 227.816 452.99 228.066 452.406 228.26C451.823 228.448 451.17 228.542 450.448 228.542ZM462.813 223.573V213.167H466.458V223.573C466.458 224.587 466.226 225.465 465.76 226.208C465.302 226.951 464.677 227.528 463.885 227.937C463.101 228.34 462.219 228.542 461.24 228.542C460.226 228.542 459.323 228.372 458.531 228.031C457.747 227.691 457.128 227.167 456.677 226.458C456.233 225.75 456.01 224.847 456.01 223.75H459.677C459.677 224.264 459.736 224.667 459.854 224.958C459.972 225.243 460.146 225.444 460.375 225.562C460.611 225.674 460.899 225.729 461.24 225.729C461.573 225.729 461.854 225.646 462.083 225.479C462.319 225.306 462.5 225.059 462.625 224.74C462.75 224.413 462.813 224.024 462.813 223.573ZM476.594 224.302C476.594 224.066 476.559 223.854 476.49 223.667C476.42 223.472 476.292 223.292 476.104 223.125C475.917 222.958 475.646 222.792 475.292 222.625C474.944 222.451 474.486 222.271 473.917 222.083C473.25 221.861 472.608 221.611 471.99 221.333C471.372 221.049 470.819 220.719 470.333 220.344C469.847 219.962 469.462 219.517 469.177 219.01C468.892 218.497 468.75 217.899 468.75 217.219C468.75 216.566 468.896 215.979 469.188 215.458C469.479 214.931 469.885 214.483 470.406 214.115C470.934 213.74 471.552 213.455 472.26 213.26C472.969 213.059 473.743 212.958 474.583 212.958C475.694 212.958 476.674 213.153 477.521 213.542C478.375 213.924 479.042 214.469 479.521 215.177C480.007 215.878 480.25 216.708 480.25 217.667H476.615C476.615 217.285 476.535 216.948 476.375 216.656C476.222 216.365 475.99 216.135 475.677 215.969C475.365 215.802 474.972 215.719 474.5 215.719C474.042 215.719 473.656 215.788 473.344 215.927C473.031 216.066 472.795 216.253 472.635 216.49C472.476 216.719 472.396 216.972 472.396 217.25C472.396 217.479 472.458 217.687 472.583 217.875C472.715 218.056 472.899 218.226 473.135 218.385C473.378 218.545 473.67 218.698 474.01 218.844C474.358 218.99 474.747 219.132 475.177 219.271C475.983 219.528 476.698 219.816 477.323 220.135C477.955 220.448 478.486 220.806 478.917 221.208C479.354 221.604 479.684 222.056 479.906 222.562C480.135 223.069 480.25 223.642 480.25 224.281C480.25 224.962 480.118 225.566 479.854 226.094C479.59 226.622 479.212 227.069 478.719 227.437C478.226 227.799 477.635 228.073 476.948 228.26C476.26 228.448 475.493 228.542 474.646 228.542C473.868 228.542 473.101 228.444 472.344 228.25C471.594 228.049 470.913 227.743 470.302 227.333C469.691 226.917 469.201 226.385 468.833 225.74C468.472 225.087 468.292 224.312 468.292 223.417H471.958C471.958 223.861 472.017 224.236 472.135 224.542C472.253 224.847 472.427 225.094 472.656 225.281C472.885 225.462 473.167 225.594 473.5 225.677C473.833 225.753 474.215 225.792 474.646 225.792C475.111 225.792 475.486 225.726 475.771 225.594C476.056 225.455 476.264 225.274 476.396 225.052C476.528 224.823 476.594 224.573 476.594 224.302Z" fill="white"/>
<rect x="571" y="196.333" width="208" height="49.3333" rx="4.66667" fill="#888888" stroke="#888888" stroke-width="4"/>
<path d="M630.656 213.167H633.635L637.021 223.719L640.406 213.167H643.385L638.229 228.333H635.813L630.656 213.167ZM628.844 213.167H631.927L632.5 224.792V228.333H628.844V213.167ZM642.115 213.167H645.208V228.333H641.542V224.792L642.115 213.167ZM646.948 222.812V222.594C646.948 221.767 647.066 221.007 647.302 220.312C647.538 219.611 647.885 219.003 648.344 218.49C648.802 217.976 649.368 217.576 650.042 217.292C650.715 217 651.493 216.854 652.375 216.854C653.264 216.854 654.045 217 654.719 217.292C655.399 217.576 655.969 217.976 656.427 218.49C656.885 219.003 657.233 219.611 657.469 220.312C657.705 221.007 657.823 221.767 657.823 222.594V222.812C657.823 223.632 657.705 224.392 657.469 225.094C657.233 225.788 656.885 226.396 656.427 226.917C655.969 227.431 655.403 227.83 654.729 228.115C654.056 228.399 653.278 228.542 652.396 228.542C651.514 228.542 650.733 228.399 650.052 228.115C649.372 227.83 648.802 227.431 648.344 226.917C647.885 226.396 647.538 225.788 647.302 225.094C647.066 224.392 646.948 223.632 646.948 222.812ZM650.458 222.594V222.812C650.458 223.236 650.49 223.632 650.552 224C650.615 224.368 650.719 224.691 650.865 224.969C651.01 225.24 651.208 225.451 651.458 225.604C651.708 225.757 652.021 225.833 652.396 225.833C652.764 225.833 653.069 225.757 653.313 225.604C653.563 225.451 653.76 225.24 653.906 224.969C654.052 224.691 654.156 224.368 654.219 224C654.281 223.632 654.313 223.236 654.313 222.812V222.594C654.313 222.184 654.281 221.799 654.219 221.437C654.156 221.069 654.052 220.747 653.906 220.469C653.76 220.184 653.563 219.962 653.313 219.802C653.063 219.642 652.75 219.562 652.375 219.562C652.007 219.562 651.698 219.642 651.448 219.802C651.205 219.962 651.01 220.184 650.865 220.469C650.719 220.747 650.615 221.069 650.552 221.437C650.49 221.799 650.458 222.184 650.458 222.594ZM662.833 219.469V228.333H659.323V217.062H662.615L662.833 219.469ZM662.417 222.312L661.594 222.333C661.594 221.472 661.698 220.705 661.906 220.031C662.115 219.351 662.41 218.774 662.792 218.302C663.174 217.83 663.628 217.472 664.156 217.229C664.691 216.979 665.285 216.854 665.938 216.854C666.458 216.854 666.934 216.931 667.365 217.083C667.802 217.236 668.177 217.483 668.49 217.823C668.809 218.163 669.052 218.615 669.219 219.177C669.392 219.733 669.479 220.42 669.479 221.24V228.333H665.948V221.229C665.948 220.778 665.885 220.434 665.76 220.198C665.635 219.955 665.455 219.788 665.219 219.698C664.983 219.608 664.694 219.562 664.354 219.562C663.993 219.562 663.688 219.632 663.438 219.771C663.188 219.91 662.986 220.104 662.833 220.354C662.688 220.597 662.58 220.885 662.51 221.219C662.448 221.552 662.417 221.917 662.417 222.312ZM678.51 217.062H681.698V227.896C681.698 228.937 681.458 229.819 680.979 230.542C680.5 231.271 679.83 231.823 678.969 232.198C678.115 232.58 677.115 232.771 675.969 232.771C675.462 232.771 674.944 232.705 674.417 232.573C673.889 232.448 673.396 232.26 672.938 232.01C672.479 231.76 672.094 231.451 671.781 231.083L673.25 229.021C673.535 229.34 673.892 229.611 674.323 229.833C674.753 230.062 675.26 230.177 675.844 230.177C676.351 230.177 676.774 230.087 677.115 229.906C677.462 229.726 677.726 229.462 677.906 229.115C678.087 228.774 678.177 228.361 678.177 227.875V219.729L678.51 217.062ZM671.021 222.833V222.615C671.021 221.76 671.125 220.983 671.333 220.281C671.549 219.573 671.854 218.965 672.25 218.458C672.653 217.944 673.139 217.549 673.708 217.271C674.278 216.993 674.92 216.854 675.635 216.854C676.406 216.854 677.038 217.003 677.531 217.302C678.031 217.594 678.431 218.003 678.729 218.531C679.035 219.059 679.271 219.677 679.438 220.385C679.611 221.087 679.757 221.844 679.875 222.656V222.917C679.757 223.681 679.594 224.403 679.385 225.083C679.184 225.757 678.92 226.354 678.594 226.875C678.267 227.396 677.858 227.806 677.365 228.104C676.878 228.396 676.295 228.542 675.615 228.542C674.906 228.542 674.267 228.399 673.698 228.115C673.135 227.83 672.653 227.431 672.25 226.917C671.854 226.403 671.549 225.799 671.333 225.104C671.125 224.41 671.021 223.653 671.021 222.833ZM674.531 222.615V222.833C674.531 223.257 674.569 223.649 674.646 224.01C674.729 224.372 674.854 224.691 675.021 224.969C675.188 225.24 675.392 225.451 675.635 225.604C675.885 225.757 676.177 225.833 676.51 225.833C677.017 225.833 677.427 225.726 677.74 225.51C678.052 225.295 678.278 224.99 678.417 224.594C678.556 224.198 678.615 223.733 678.594 223.198V222.375C678.608 221.917 678.576 221.514 678.5 221.167C678.424 220.812 678.302 220.517 678.135 220.281C677.976 220.045 677.76 219.868 677.49 219.75C677.226 219.625 676.906 219.562 676.531 219.562C676.205 219.562 675.917 219.639 675.667 219.792C675.417 219.944 675.208 220.16 675.042 220.437C674.875 220.708 674.747 221.031 674.656 221.406C674.573 221.774 674.531 222.177 674.531 222.615ZM683.281 222.812V222.594C683.281 221.767 683.399 221.007 683.635 220.312C683.872 219.611 684.219 219.003 684.677 218.49C685.135 217.976 685.701 217.576 686.375 217.292C687.049 217 687.826 216.854 688.708 216.854C689.597 216.854 690.378 217 691.052 217.292C691.733 217.576 692.302 217.976 692.76 218.49C693.219 219.003 693.566 219.611 693.802 220.312C694.038 221.007 694.156 221.767 694.156 222.594V222.812C694.156 223.632 694.038 224.392 693.802 225.094C693.566 225.788 693.219 226.396 692.76 226.917C692.302 227.431 691.736 227.83 691.063 228.115C690.389 228.399 689.611 228.542 688.729 228.542C687.847 228.542 687.066 228.399 686.385 228.115C685.705 227.83 685.135 227.431 684.677 226.917C684.219 226.396 683.872 225.788 683.635 225.094C683.399 224.392 683.281 223.632 683.281 222.812ZM686.792 222.594V222.812C686.792 223.236 686.823 223.632 686.885 224C686.948 224.368 687.052 224.691 687.198 224.969C687.344 225.24 687.542 225.451 687.792 225.604C688.042 225.757 688.354 225.833 688.729 225.833C689.097 225.833 689.403 225.757 689.646 225.604C689.896 225.451 690.094 225.24 690.24 224.969C690.385 224.691 690.49 224.368 690.552 224C690.615 223.632 690.646 223.236 690.646 222.812V222.594C690.646 222.184 690.615 221.799 690.552 221.437C690.49 221.069 690.385 220.747 690.24 220.469C690.094 220.184 689.896 219.962 689.646 219.802C689.396 219.642 689.083 219.562 688.708 219.562C688.34 219.562 688.031 219.642 687.781 219.802C687.538 219.962 687.344 220.184 687.198 220.469C687.052 220.747 686.948 221.069 686.885 221.437C686.823 221.799 686.792 222.184 686.792 222.594ZM700.813 228.333H697.448L697.469 225.521H700.813C701.507 225.521 702.094 225.354 702.573 225.021C703.059 224.687 703.427 224.191 703.677 223.531C703.934 222.865 704.063 222.045 704.063 221.073V220.417C704.063 219.687 703.99 219.049 703.844 218.5C703.705 217.944 703.497 217.483 703.219 217.115C702.941 216.74 702.594 216.458 702.177 216.271C701.767 216.083 701.295 215.99 700.76 215.99H697.385V213.167H700.76C701.788 213.167 702.729 213.344 703.583 213.698C704.444 214.045 705.188 214.545 705.813 215.198C706.444 215.844 706.931 216.611 707.271 217.5C707.618 218.382 707.792 219.361 707.792 220.437V221.073C707.792 222.142 707.618 223.122 707.271 224.01C706.931 224.899 706.448 225.667 705.823 226.312C705.198 226.958 704.458 227.458 703.604 227.812C702.757 228.16 701.826 228.333 700.813 228.333ZM699.542 213.167V228.333H695.885V213.167H699.542ZM715.885 221.885H711.979L711.958 219.49H715.125C715.694 219.49 716.149 219.427 716.49 219.302C716.83 219.17 717.076 218.979 717.229 218.729C717.389 218.479 717.469 218.167 717.469 217.792C717.469 217.361 717.389 217.014 717.229 216.75C717.069 216.486 716.816 216.295 716.469 216.177C716.128 216.052 715.688 215.99 715.146 215.99H713.354V228.333H709.698V213.167H715.146C716.083 213.167 716.92 213.253 717.656 213.427C718.392 213.594 719.017 213.851 719.531 214.198C720.052 214.545 720.448 214.983 720.719 215.51C720.99 216.031 721.125 216.646 721.125 217.354C721.125 217.972 720.993 218.552 720.729 219.094C720.465 219.635 720.024 220.076 719.406 220.417C718.795 220.75 717.958 220.924 716.896 220.937L715.885 221.885ZM715.74 228.333H711.094L712.344 225.521H715.74C716.24 225.521 716.639 225.444 716.938 225.292C717.243 225.132 717.462 224.924 717.594 224.667C717.733 224.403 717.802 224.111 717.802 223.792C717.802 223.403 717.736 223.066 717.604 222.781C717.479 222.497 717.278 222.278 717 222.125C716.722 221.965 716.351 221.885 715.885 221.885H712.813L712.833 219.49H716.51L717.365 220.448C718.378 220.406 719.181 220.549 719.771 220.875C720.368 221.201 720.795 221.632 721.052 222.167C721.309 222.701 721.438 223.26 721.438 223.844C721.438 224.837 721.222 225.667 720.792 226.333C720.368 227 719.733 227.5 718.885 227.833C718.038 228.167 716.99 228.333 715.74 228.333Z" fill="white"/>
<rect x="803" y="196.333" width="208" height="49.3333" rx="4.66667" fill="#888888" stroke="#888888" stroke-width="4"/>
<path d="M870.333 213.167V228.333H866.677V213.167H870.333ZM876.229 219.479V222.292H869.292V219.479H876.229ZM876.823 213.167V215.99H869.292V213.167H876.823ZM881.885 217.062V228.333H878.365V217.062H881.885ZM878.156 214.156C878.156 213.656 878.337 213.247 878.698 212.927C879.059 212.608 879.528 212.448 880.104 212.448C880.681 212.448 881.149 212.608 881.51 212.927C881.872 213.247 882.052 213.656 882.052 214.156C882.052 214.656 881.872 215.066 881.51 215.385C881.149 215.705 880.681 215.865 880.104 215.865C879.528 215.865 879.059 215.705 878.698 215.385C878.337 215.066 878.156 214.656 878.156 214.156ZM887.594 219.854V228.333H884.083V217.062H887.365L887.594 219.854ZM890.927 216.979L890.865 220.24C890.726 220.226 890.538 220.208 890.302 220.187C890.066 220.167 889.868 220.156 889.708 220.156C889.299 220.156 888.944 220.205 888.646 220.302C888.354 220.392 888.111 220.531 887.917 220.719C887.729 220.899 887.59 221.128 887.5 221.406C887.417 221.684 887.378 222.007 887.385 222.375L886.75 221.958C886.75 221.201 886.823 220.514 886.969 219.896C887.122 219.271 887.337 218.733 887.615 218.281C887.892 217.823 888.229 217.472 888.625 217.229C889.021 216.979 889.465 216.854 889.958 216.854C890.132 216.854 890.302 216.865 890.469 216.885C890.642 216.906 890.795 216.937 890.927 216.979ZM897.385 228.542C896.469 228.542 895.649 228.399 894.927 228.115C894.205 227.823 893.594 227.424 893.094 226.917C892.601 226.41 892.222 225.826 891.958 225.167C891.701 224.507 891.573 223.809 891.573 223.073V222.677C891.573 221.851 891.688 221.087 891.917 220.385C892.146 219.677 892.486 219.059 892.938 218.531C893.389 218.003 893.955 217.594 894.635 217.302C895.316 217.003 896.108 216.854 897.01 216.854C897.809 216.854 898.524 216.983 899.156 217.24C899.788 217.497 900.323 217.865 900.76 218.344C901.205 218.823 901.542 219.403 901.771 220.083C902.007 220.764 902.125 221.528 902.125 222.375V223.802H892.917V221.604H898.698V221.333C898.705 220.958 898.639 220.639 898.5 220.375C898.368 220.111 898.174 219.91 897.917 219.771C897.66 219.632 897.347 219.562 896.979 219.562C896.597 219.562 896.281 219.646 896.031 219.812C895.788 219.979 895.597 220.208 895.458 220.5C895.326 220.785 895.233 221.115 895.177 221.49C895.122 221.865 895.094 222.26 895.094 222.677V223.073C895.094 223.49 895.149 223.868 895.26 224.208C895.378 224.549 895.545 224.84 895.76 225.083C895.983 225.319 896.247 225.503 896.552 225.635C896.865 225.767 897.219 225.833 897.615 225.833C898.094 225.833 898.566 225.743 899.031 225.562C899.497 225.382 899.896 225.083 900.229 224.667L901.823 226.562C901.594 226.889 901.267 227.205 900.844 227.51C900.427 227.816 899.927 228.066 899.344 228.26C898.76 228.448 898.108 228.542 897.385 228.542ZM903.583 212.333H907.094V225.562L906.729 228.333H903.583V212.333ZM914.01 222.573V222.792C914.01 223.646 913.924 224.424 913.75 225.125C913.576 225.826 913.309 226.434 912.948 226.948C912.587 227.455 912.132 227.847 911.583 228.125C911.035 228.403 910.385 228.542 909.635 228.542C908.955 228.542 908.372 228.396 907.885 228.104C907.399 227.806 906.993 227.396 906.667 226.875C906.34 226.347 906.076 225.74 905.875 225.052C905.674 224.358 905.514 223.615 905.396 222.823V222.562C905.514 221.778 905.674 221.042 905.875 220.354C906.076 219.66 906.34 219.052 906.667 218.531C906.993 218.003 907.396 217.594 907.875 217.302C908.361 217.003 908.941 216.854 909.615 216.854C910.372 216.854 911.024 216.997 911.573 217.281C912.128 217.566 912.587 217.965 912.948 218.479C913.309 218.993 913.576 219.597 913.75 220.292C913.924 220.986 914.01 221.747 914.01 222.573ZM910.5 222.792V222.573C910.5 222.163 910.476 221.778 910.427 221.417C910.378 221.056 910.292 220.736 910.167 220.458C910.042 220.181 909.865 219.962 909.635 219.802C909.406 219.642 909.108 219.562 908.74 219.562C908.365 219.562 908.049 219.625 907.792 219.75C907.542 219.875 907.34 220.056 907.188 220.292C907.042 220.521 906.938 220.806 906.875 221.146C906.813 221.479 906.785 221.858 906.792 222.281V223.104C906.778 223.681 906.83 224.174 906.948 224.583C907.066 224.993 907.271 225.306 907.563 225.521C907.854 225.736 908.253 225.844 908.76 225.844C909.135 225.844 909.438 225.771 909.667 225.625C909.903 225.479 910.08 225.271 910.198 225C910.316 224.729 910.396 224.406 910.438 224.031C910.479 223.656 910.5 223.243 910.5 222.792ZM921.427 225.5V220.854C921.427 220.535 921.382 220.26 921.292 220.031C921.201 219.802 921.059 219.625 920.865 219.5C920.67 219.368 920.41 219.302 920.083 219.302C919.819 219.302 919.594 219.347 919.406 219.437C919.219 219.528 919.076 219.663 918.979 219.844C918.882 220.024 918.833 220.253 918.833 220.531H915.323C915.323 220.01 915.437 219.528 915.667 219.083C915.903 218.632 916.236 218.24 916.667 217.906C917.104 217.573 917.625 217.316 918.229 217.135C918.84 216.948 919.521 216.854 920.271 216.854C921.167 216.854 921.965 217.003 922.667 217.302C923.375 217.601 923.934 218.049 924.344 218.646C924.753 219.236 924.958 219.979 924.958 220.875V225.49C924.958 226.226 925 226.785 925.083 227.167C925.167 227.542 925.285 227.872 925.437 228.156V228.333H921.917C921.75 227.986 921.625 227.562 921.542 227.062C921.465 226.556 921.427 226.035 921.427 225.5ZM921.854 221.448L921.875 223.323H920.323C919.997 223.323 919.719 223.368 919.49 223.458C919.267 223.549 919.087 223.674 918.948 223.833C918.816 223.986 918.719 224.16 918.656 224.354C918.601 224.549 918.573 224.753 918.573 224.969C918.573 225.177 918.622 225.365 918.719 225.531C918.823 225.691 918.962 225.816 919.135 225.906C919.309 225.997 919.503 226.042 919.719 226.042C920.108 226.042 920.437 225.969 920.708 225.823C920.986 225.67 921.198 225.486 921.344 225.271C921.49 225.056 921.562 224.854 921.562 224.667L922.333 226.104C922.194 226.382 922.035 226.663 921.854 226.948C921.681 227.233 921.462 227.497 921.198 227.74C920.941 227.976 920.625 228.17 920.25 228.323C919.875 228.469 919.42 228.542 918.885 228.542C918.191 228.542 917.552 228.399 916.969 228.115C916.392 227.83 915.931 227.434 915.583 226.927C915.236 226.413 915.062 225.823 915.062 225.156C915.062 224.573 915.167 224.052 915.375 223.594C915.59 223.135 915.913 222.747 916.344 222.427C916.774 222.108 917.323 221.865 917.99 221.698C918.656 221.531 919.441 221.448 920.344 221.448H921.854ZM932.812 225.167C932.812 224.972 932.747 224.806 932.615 224.667C932.49 224.521 932.267 224.389 931.948 224.271C931.628 224.146 931.181 224.021 930.604 223.896C930.056 223.778 929.538 223.622 929.052 223.427C928.573 223.233 928.153 222.997 927.792 222.719C927.431 222.441 927.146 222.111 926.937 221.729C926.736 221.347 926.635 220.91 926.635 220.417C926.635 219.937 926.736 219.486 926.937 219.062C927.146 218.632 927.448 218.253 927.844 217.927C928.247 217.594 928.736 217.333 929.312 217.146C929.889 216.951 930.545 216.854 931.281 216.854C932.295 216.854 933.17 217.01 933.906 217.323C934.642 217.628 935.208 218.059 935.604 218.615C936.007 219.163 936.208 219.799 936.208 220.521H932.698C932.698 220.236 932.649 219.993 932.552 219.792C932.462 219.59 932.312 219.437 932.104 219.333C931.896 219.222 931.618 219.167 931.271 219.167C931.028 219.167 930.806 219.212 930.604 219.302C930.41 219.392 930.253 219.517 930.135 219.677C930.017 219.837 929.958 220.024 929.958 220.24C929.958 220.392 929.993 220.531 930.062 220.656C930.139 220.774 930.253 220.885 930.406 220.99C930.559 221.087 930.753 221.177 930.99 221.26C931.226 221.337 931.51 221.406 931.844 221.469C932.601 221.608 933.309 221.806 933.969 222.062C934.628 222.319 935.163 222.684 935.573 223.156C935.99 223.628 936.198 224.264 936.198 225.062C936.198 225.562 936.083 226.024 935.854 226.448C935.625 226.865 935.295 227.233 934.865 227.552C934.434 227.865 933.917 228.108 933.312 228.281C932.708 228.455 932.028 228.542 931.271 228.542C930.194 228.542 929.285 228.351 928.542 227.969C927.799 227.58 927.236 227.094 926.854 226.51C926.479 225.92 926.292 225.323 926.292 224.719H929.562C929.576 225.066 929.66 225.351 929.812 225.573C929.972 225.795 930.184 225.958 930.448 226.062C930.712 226.167 931.017 226.219 931.365 226.219C931.684 226.219 931.948 226.174 932.156 226.083C932.372 225.993 932.535 225.872 932.646 225.719C932.757 225.559 932.812 225.375 932.812 225.167ZM943.302 228.542C942.385 228.542 941.566 228.399 940.844 228.115C940.122 227.823 939.51 227.424 939.01 226.917C938.517 226.41 938.139 225.826 937.875 225.167C937.618 224.507 937.49 223.809 937.49 223.073V222.677C937.49 221.851 937.604 221.087 937.833 220.385C938.062 219.677 938.403 219.059 938.854 218.531C939.306 218.003 939.872 217.594 940.552 217.302C941.233 217.003 942.024 216.854 942.927 216.854C943.726 216.854 944.441 216.983 945.073 217.24C945.705 217.497 946.24 217.865 946.677 218.344C947.122 218.823 947.458 219.403 947.687 220.083C947.924 220.764 948.042 221.528 948.042 222.375V223.802H938.833V221.604H944.615V221.333C944.622 220.958 944.556 220.639 944.417 220.375C944.285 220.111 944.09 219.91 943.833 219.771C943.576 219.632 943.264 219.562 942.896 219.562C942.514 219.562 942.198 219.646 941.948 219.812C941.705 219.979 941.514 220.208 941.375 220.5C941.243 220.785 941.149 221.115 941.094 221.49C941.038 221.865 941.01 222.26 941.01 222.677V223.073C941.01 223.49 941.066 223.868 941.177 224.208C941.295 224.549 941.462 224.84 941.677 225.083C941.899 225.319 942.163 225.503 942.469 225.635C942.781 225.767 943.135 225.833 943.531 225.833C944.01 225.833 944.483 225.743 944.948 225.562C945.413 225.382 945.812 225.083 946.146 224.667L947.74 226.562C947.51 226.889 947.184 227.205 946.76 227.51C946.344 227.816 945.844 228.066 945.26 228.26C944.677 228.448 944.024 228.542 943.302 228.542Z" fill="white"/>
</svg>
