<svg width="1363" height="167" viewBox="0 0 1363 167" fill="none" xmlns="http://www.w3.org/2000/svg">
<g style="mix-blend-mode:exclusion">
<rect width="1363" height="167" rx="15" fill="white" fill-opacity="0.05"/>
</g>
<g style="mix-blend-mode:exclusion">
<path d="M0 15C0 6.71573 6.71573 0 15 0H37V167H15C6.71573 167 0 160.284 0 152V15Z" fill="white" fill-opacity="0.25"/>
</g>
<g style="mix-blend-mode:exclusion">
<path d="M100.906 54.9219L93.3945 52.2383V49.0859L103.602 53.375V55.6367L100.906 54.9219ZM93.3945 57.1719L100.918 54.4297L103.602 53.7852V56.0352L93.3945 60.3242V57.1719ZM121.32 44.9375H124.824V56.2109C124.824 57.5234 124.543 58.6289 123.98 59.5273C123.426 60.4258 122.656 61.1016 121.672 61.5547C120.695 62.0078 119.57 62.2344 118.297 62.2344C117.023 62.2344 115.891 62.0078 114.898 61.5547C113.914 61.1016 113.141 60.4258 112.578 59.5273C112.023 58.6289 111.746 57.5234 111.746 56.2109V44.9375H115.262V56.2109C115.262 56.9766 115.383 57.6016 115.625 58.0859C115.867 58.5703 116.215 58.9258 116.668 59.1523C117.129 59.3789 117.672 59.4922 118.297 59.4922C118.938 59.4922 119.48 59.3789 119.926 59.1523C120.379 58.9258 120.723 58.5703 120.957 58.0859C121.199 57.6016 121.32 56.9766 121.32 56.2109V44.9375ZM132.746 59.5977C133.16 59.5977 133.527 59.5195 133.848 59.3633C134.168 59.1992 134.418 58.9727 134.598 58.6836C134.785 58.3867 134.883 58.0391 134.891 57.6406H138.066C138.059 58.5312 137.82 59.3242 137.352 60.0195C136.883 60.707 136.254 61.25 135.465 61.6484C134.676 62.0391 133.793 62.2344 132.816 62.2344C131.832 62.2344 130.973 62.0703 130.238 61.7422C129.512 61.4141 128.906 60.9609 128.422 60.3828C127.938 59.7969 127.574 59.1172 127.332 58.3438C127.09 57.5625 126.969 56.7266 126.969 55.8359V55.4961C126.969 54.5977 127.09 53.7617 127.332 52.9883C127.574 52.207 127.938 51.5273 128.422 50.9492C128.906 50.3633 129.512 49.9062 130.238 49.5781C130.965 49.25 131.816 49.0859 132.793 49.0859C133.832 49.0859 134.742 49.2852 135.523 49.6836C136.312 50.082 136.93 50.6523 137.375 51.3945C137.828 52.1289 138.059 53 138.066 54.0078H134.891C134.883 53.5859 134.793 53.2031 134.621 52.8594C134.457 52.5156 134.215 52.2422 133.895 52.0391C133.582 51.8281 133.195 51.7227 132.734 51.7227C132.242 51.7227 131.84 51.8281 131.527 52.0391C131.215 52.2422 130.973 52.5234 130.801 52.8828C130.629 53.2344 130.508 53.6367 130.438 54.0898C130.375 54.5352 130.344 55.0039 130.344 55.4961V55.8359C130.344 56.3281 130.375 56.8008 130.438 57.2539C130.5 57.707 130.617 58.1094 130.789 58.4609C130.969 58.8125 131.215 59.0898 131.527 59.293C131.84 59.4961 132.246 59.5977 132.746 59.5977ZM146.867 59.1406V53.4922C146.867 53.0859 146.801 52.7383 146.668 52.4492C146.535 52.1523 146.328 51.9219 146.047 51.7578C145.773 51.5938 145.418 51.5117 144.98 51.5117C144.605 51.5117 144.281 51.5781 144.008 51.7109C143.734 51.8359 143.523 52.0195 143.375 52.2617C143.227 52.4961 143.152 52.7734 143.152 53.0938H139.777C139.777 52.5547 139.902 52.043 140.152 51.5586C140.402 51.0742 140.766 50.6484 141.242 50.2812C141.719 49.9062 142.285 49.6133 142.941 49.4023C143.605 49.1914 144.348 49.0859 145.168 49.0859C146.152 49.0859 147.027 49.25 147.793 49.5781C148.559 49.9062 149.16 50.3984 149.598 51.0547C150.043 51.7109 150.266 52.5312 150.266 53.5156V58.9414C150.266 59.6367 150.309 60.207 150.395 60.6523C150.48 61.0898 150.605 61.4727 150.77 61.8008V62H147.359C147.195 61.6562 147.07 61.2266 146.984 60.7109C146.906 60.1875 146.867 59.6641 146.867 59.1406ZM147.312 54.2773L147.336 56.1875H145.449C145.004 56.1875 144.617 56.2383 144.289 56.3398C143.961 56.4414 143.691 56.5859 143.48 56.7734C143.27 56.9531 143.113 57.1641 143.012 57.4062C142.918 57.6484 142.871 57.9141 142.871 58.2031C142.871 58.4922 142.938 58.7539 143.07 58.9883C143.203 59.2148 143.395 59.3945 143.645 59.5273C143.895 59.6523 144.188 59.7148 144.523 59.7148C145.031 59.7148 145.473 59.6133 145.848 59.4102C146.223 59.207 146.512 58.957 146.715 58.6602C146.926 58.3633 147.035 58.082 147.043 57.8164L147.934 59.2461C147.809 59.5664 147.637 59.8984 147.418 60.2422C147.207 60.5859 146.938 60.9102 146.609 61.2148C146.281 61.5117 145.887 61.7578 145.426 61.9531C144.965 62.1406 144.418 62.2344 143.785 62.2344C142.98 62.2344 142.25 62.0742 141.594 61.7539C140.945 61.4258 140.43 60.9766 140.047 60.4062C139.672 59.8281 139.484 59.1719 139.484 58.4375C139.484 57.7734 139.609 57.1836 139.859 56.668C140.109 56.1523 140.477 55.7188 140.961 55.3672C141.453 55.0078 142.066 54.7383 142.801 54.5586C143.535 54.3711 144.387 54.2773 145.355 54.2773H147.312ZM156.242 52.0859V62H152.867V49.3203H156.043L156.242 52.0859ZM160.062 49.2383L160.004 52.3672C159.84 52.3438 159.641 52.3242 159.406 52.3086C159.18 52.2852 158.973 52.2734 158.785 52.2734C158.309 52.2734 157.895 52.3359 157.543 52.4609C157.199 52.5781 156.91 52.7539 156.676 52.9883C156.449 53.2227 156.277 53.5078 156.16 53.8438C156.051 54.1797 155.988 54.5625 155.973 54.9922L155.293 54.7812C155.293 53.9609 155.375 53.207 155.539 52.5195C155.703 51.8242 155.941 51.2188 156.254 50.7031C156.574 50.1875 156.965 49.7891 157.426 49.5078C157.887 49.2266 158.414 49.0859 159.008 49.0859C159.195 49.0859 159.387 49.1016 159.582 49.1328C159.777 49.1562 159.938 49.1914 160.062 49.2383ZM168.91 59.2344V44H172.309V62H169.25L168.91 59.2344ZM160.895 55.8125V55.5664C160.895 54.5977 161.004 53.7188 161.223 52.9297C161.441 52.1328 161.762 51.4492 162.184 50.8789C162.605 50.3086 163.125 49.8672 163.742 49.5547C164.359 49.2422 165.062 49.0859 165.852 49.0859C166.594 49.0859 167.242 49.2422 167.797 49.5547C168.359 49.8672 168.836 50.3125 169.227 50.8906C169.625 51.4609 169.945 52.1367 170.188 52.918C170.43 53.6914 170.605 54.5391 170.715 55.4609V56C170.605 56.8828 170.43 57.7031 170.188 58.4609C169.945 59.2188 169.625 59.8828 169.227 60.4531C168.836 61.0156 168.359 61.4531 167.797 61.7656C167.234 62.0781 166.578 62.2344 165.828 62.2344C165.039 62.2344 164.336 62.0742 163.719 61.7539C163.109 61.4336 162.594 60.9844 162.172 60.4062C161.758 59.8281 161.441 59.1484 161.223 58.3672C161.004 57.5859 160.895 56.7344 160.895 55.8125ZM164.27 55.5664V55.8125C164.27 56.3359 164.309 56.8242 164.387 57.2773C164.473 57.7305 164.609 58.1328 164.797 58.4844C164.992 58.8281 165.242 59.0977 165.547 59.293C165.859 59.4805 166.238 59.5742 166.684 59.5742C167.262 59.5742 167.738 59.4453 168.113 59.1875C168.488 58.9219 168.773 58.5586 168.969 58.0977C169.172 57.6367 169.289 57.1055 169.32 56.5039V54.9688C169.297 54.4766 169.227 54.0352 169.109 53.6445C169 53.2461 168.836 52.9062 168.617 52.625C168.406 52.3438 168.141 52.125 167.82 51.9688C167.508 51.8125 167.137 51.7344 166.707 51.7344C166.27 51.7344 165.895 51.8359 165.582 52.0391C165.27 52.2344 165.016 52.5039 164.82 52.8477C164.633 53.1914 164.492 53.5977 164.398 54.0664C164.312 54.5273 164.27 55.0273 164.27 55.5664Z" fill="white" fill-opacity="0.5"/>
</g>
<g style="mix-blend-mode:exclusion">
<path d="M107.205 107.146H99.251V101.191H107.205C108.289 101.191 109.168 101.008 109.842 100.642C110.516 100.275 111.006 99.77 111.314 99.1255C111.636 98.4663 111.797 97.7266 111.797 96.9062C111.797 96.0273 111.636 95.2144 111.314 94.4673C111.006 93.7202 110.516 93.1196 109.842 92.6655C109.168 92.1968 108.289 91.9624 107.205 91.9624H102.151V118H94.439V86.0078H107.205C109.769 86.0078 111.973 86.4766 113.819 87.4141C115.679 88.3516 117.107 89.6406 118.104 91.2812C119.1 92.9072 119.598 94.7676 119.598 96.8623C119.598 98.9277 119.1 100.729 118.104 102.268C117.107 103.806 115.679 105.007 113.819 105.871C111.973 106.721 109.769 107.146 107.205 107.146ZM130.87 100.114V118H123.465V94.2256H130.386L130.87 100.114ZM137.901 94.0498L137.769 100.927C137.476 100.898 137.081 100.861 136.583 100.817C136.084 100.773 135.667 100.751 135.33 100.751C134.466 100.751 133.719 100.854 133.089 101.059C132.474 101.25 131.961 101.542 131.551 101.938C131.155 102.319 130.862 102.802 130.672 103.388C130.496 103.974 130.416 104.655 130.43 105.432L129.09 104.553C129.09 102.956 129.244 101.506 129.551 100.202C129.874 98.8838 130.328 97.7485 130.914 96.7964C131.5 95.8296 132.21 95.0898 133.045 94.5771C133.88 94.0498 134.817 93.7861 135.857 93.7861C136.224 93.7861 136.583 93.8081 136.934 93.8521C137.3 93.896 137.623 93.9619 137.901 94.0498ZM138.736 106.354V105.893C138.736 104.15 138.985 102.546 139.483 101.081C139.981 99.6016 140.713 98.3198 141.68 97.2358C142.647 96.1519 143.841 95.3096 145.262 94.709C146.683 94.0938 148.323 93.7861 150.184 93.7861C152.059 93.7861 153.707 94.0938 155.127 94.709C156.563 95.3096 157.764 96.1519 158.731 97.2358C159.698 98.3198 160.43 99.6016 160.928 101.081C161.426 102.546 161.675 104.15 161.675 105.893V106.354C161.675 108.083 161.426 109.687 160.928 111.167C160.43 112.631 159.698 113.913 158.731 115.012C157.764 116.096 156.57 116.938 155.149 117.539C153.729 118.139 152.088 118.439 150.228 118.439C148.367 118.439 146.719 118.139 145.284 117.539C143.848 116.938 142.647 116.096 141.68 115.012C140.713 113.913 139.981 112.631 139.483 111.167C138.985 109.687 138.736 108.083 138.736 106.354ZM146.141 105.893V106.354C146.141 107.248 146.207 108.083 146.338 108.859C146.47 109.636 146.69 110.317 146.998 110.903C147.305 111.474 147.723 111.921 148.25 112.243C148.777 112.565 149.437 112.727 150.228 112.727C151.004 112.727 151.648 112.565 152.161 112.243C152.688 111.921 153.106 111.474 153.414 110.903C153.721 110.317 153.941 109.636 154.073 108.859C154.205 108.083 154.271 107.248 154.271 106.354V105.893C154.271 105.029 154.205 104.216 154.073 103.454C153.941 102.678 153.721 101.997 153.414 101.411C153.106 100.81 152.688 100.341 152.161 100.004C151.634 99.6675 150.975 99.499 150.184 99.499C149.407 99.499 148.755 99.6675 148.228 100.004C147.715 100.341 147.305 100.81 146.998 101.411C146.69 101.997 146.47 102.678 146.338 103.454C146.207 104.216 146.141 105.029 146.141 105.893ZM177.496 94.2256V99.3672H163.169V94.2256H177.496ZM166.18 88.3149H173.584V110.244C173.584 110.874 173.658 111.364 173.804 111.716C173.951 112.053 174.2 112.294 174.551 112.441C174.917 112.573 175.401 112.639 176.001 112.639C176.426 112.639 176.778 112.631 177.056 112.617C177.334 112.587 177.598 112.551 177.847 112.507V117.802C177.217 118.007 176.558 118.161 175.87 118.264C175.181 118.381 174.449 118.439 173.672 118.439C172.09 118.439 170.735 118.19 169.607 117.692C168.494 117.194 167.645 116.411 167.059 115.341C166.473 114.272 166.18 112.88 166.18 111.167V88.3149ZM178.858 106.354V105.893C178.858 104.15 179.107 102.546 179.605 101.081C180.103 99.6016 180.835 98.3198 181.802 97.2358C182.769 96.1519 183.963 95.3096 185.384 94.709C186.805 94.0938 188.445 93.7861 190.306 93.7861C192.181 93.7861 193.829 94.0938 195.25 94.709C196.685 95.3096 197.886 96.1519 198.853 97.2358C199.82 98.3198 200.552 99.6016 201.05 101.081C201.548 102.546 201.797 104.15 201.797 105.893V106.354C201.797 108.083 201.548 109.687 201.05 111.167C200.552 112.631 199.82 113.913 198.853 115.012C197.886 116.096 196.692 116.938 195.271 117.539C193.851 118.139 192.21 118.439 190.35 118.439C188.489 118.439 186.841 118.139 185.406 117.539C183.97 116.938 182.769 116.096 181.802 115.012C180.835 113.913 180.103 112.631 179.605 111.167C179.107 109.687 178.858 108.083 178.858 106.354ZM186.263 105.893V106.354C186.263 107.248 186.329 108.083 186.46 108.859C186.592 109.636 186.812 110.317 187.12 110.903C187.427 111.474 187.845 111.921 188.372 112.243C188.899 112.565 189.559 112.727 190.35 112.727C191.126 112.727 191.771 112.565 192.283 112.243C192.811 111.921 193.228 111.474 193.536 110.903C193.843 110.317 194.063 109.636 194.195 108.859C194.327 108.083 194.393 107.248 194.393 106.354V105.893C194.393 105.029 194.327 104.216 194.195 103.454C194.063 102.678 193.843 101.997 193.536 101.411C193.228 100.81 192.811 100.341 192.283 100.004C191.756 99.6675 191.097 99.499 190.306 99.499C189.529 99.499 188.877 99.6675 188.35 100.004C187.837 100.341 187.427 100.81 187.12 101.411C186.812 101.997 186.592 102.678 186.46 103.454C186.329 104.216 186.263 105.029 186.263 105.893ZM217.618 94.2256V99.3672H203.292V94.2256H217.618ZM206.302 88.3149H213.707V110.244C213.707 110.874 213.78 111.364 213.926 111.716C214.073 112.053 214.322 112.294 214.673 112.441C215.04 112.573 215.523 112.639 216.124 112.639C216.548 112.639 216.9 112.631 217.178 112.617C217.457 112.587 217.72 112.551 217.969 112.507V117.802C217.339 118.007 216.68 118.161 215.992 118.264C215.303 118.381 214.571 118.439 213.794 118.439C212.212 118.439 210.857 118.19 209.729 117.692C208.616 117.194 207.767 116.411 207.181 115.341C206.595 114.272 206.302 112.88 206.302 111.167V88.3149ZM227.857 115.209L234.009 94.2256H241.963L232.405 121.538C232.2 122.138 231.929 122.783 231.592 123.471C231.255 124.174 230.794 124.841 230.208 125.471C229.622 126.101 228.868 126.613 227.945 127.009C227.037 127.404 225.909 127.602 224.561 127.602C223.843 127.602 223.316 127.565 222.979 127.492C222.657 127.434 222.159 127.324 221.485 127.163V121.867C221.675 121.867 221.836 121.867 221.968 121.867C222.115 121.867 222.276 121.867 222.452 121.867C223.243 121.867 223.873 121.787 224.341 121.625C224.825 121.464 225.191 121.23 225.44 120.922C225.704 120.615 225.909 120.241 226.055 119.802L227.857 115.209ZM226.297 94.2256L230.977 110.859L231.79 118.703H226.824L218.365 94.2256H226.297ZM251.368 98.7959V127.141H243.963V94.2256H250.862L251.368 98.7959ZM265.958 105.827V106.289C265.958 108.017 265.76 109.621 265.364 111.101C264.969 112.58 264.383 113.869 263.606 114.968C262.83 116.066 261.863 116.923 260.706 117.539C259.563 118.139 258.238 118.439 256.729 118.439C255.308 118.439 254.085 118.125 253.06 117.495C252.034 116.865 251.177 115.993 250.489 114.88C249.8 113.767 249.244 112.492 248.819 111.057C248.394 109.621 248.057 108.105 247.808 106.508V105.915C248.057 104.201 248.394 102.612 248.819 101.147C249.244 99.6675 249.8 98.3784 250.489 97.2798C251.177 96.1812 252.027 95.3242 253.038 94.709C254.063 94.0938 255.286 93.7861 256.707 93.7861C258.216 93.7861 259.542 94.0718 260.684 94.6431C261.841 95.2144 262.808 96.0347 263.584 97.104C264.375 98.1587 264.969 99.4258 265.364 100.905C265.76 102.385 265.958 104.025 265.958 105.827ZM258.553 106.289V105.827C258.553 104.904 258.487 104.062 258.355 103.3C258.223 102.524 258.011 101.85 257.718 101.279C257.439 100.708 257.066 100.268 256.597 99.9604C256.128 99.6528 255.55 99.499 254.861 99.499C254.07 99.499 253.404 99.6235 252.862 99.8726C252.334 100.107 251.91 100.473 251.587 100.971C251.28 101.455 251.06 102.062 250.928 102.795C250.811 103.513 250.76 104.355 250.774 105.322V107.124C250.745 108.237 250.855 109.218 251.104 110.068C251.353 110.903 251.785 111.555 252.4 112.023C253.016 112.492 253.851 112.727 254.905 112.727C255.608 112.727 256.194 112.565 256.663 112.243C257.132 111.906 257.505 111.445 257.784 110.859C258.062 110.258 258.26 109.57 258.377 108.793C258.494 108.017 258.553 107.182 258.553 106.289ZM277.076 94.2256V118H269.649V94.2256H277.076ZM269.209 88.0952C269.209 87.0405 269.59 86.1763 270.352 85.5024C271.114 84.8286 272.103 84.4917 273.318 84.4917C274.534 84.4917 275.523 84.8286 276.285 85.5024C277.046 86.1763 277.427 87.0405 277.427 88.0952C277.427 89.1499 277.046 90.0142 276.285 90.688C275.523 91.3618 274.534 91.6987 273.318 91.6987C272.103 91.6987 271.114 91.3618 270.352 90.688C269.59 90.0142 269.209 89.1499 269.209 88.0952ZM288.919 99.3013V118H281.514V94.2256H288.458L288.919 99.3013ZM288.04 105.3L286.304 105.344C286.304 103.527 286.524 101.909 286.963 100.488C287.403 99.0522 288.025 97.8364 288.831 96.8403C289.637 95.8442 290.596 95.0898 291.709 94.5771C292.837 94.0498 294.09 93.7861 295.467 93.7861C296.565 93.7861 297.569 93.9473 298.477 94.2695C299.4 94.5918 300.191 95.1118 300.85 95.8296C301.524 96.5474 302.037 97.4995 302.388 98.686C302.754 99.8579 302.938 101.308 302.938 103.037V118H295.489V103.015C295.489 102.062 295.357 101.337 295.093 100.839C294.83 100.327 294.449 99.9751 293.951 99.7847C293.453 99.5942 292.845 99.499 292.127 99.499C291.365 99.499 290.721 99.6455 290.193 99.9385C289.666 100.231 289.241 100.642 288.919 101.169C288.611 101.682 288.384 102.29 288.238 102.993C288.106 103.696 288.04 104.465 288.04 105.3ZM321.988 94.2256H328.711V117.077C328.711 119.274 328.206 121.135 327.195 122.658C326.185 124.196 324.771 125.361 322.955 126.152C321.153 126.958 319.043 127.36 316.626 127.36C315.557 127.36 314.466 127.221 313.353 126.943C312.239 126.679 311.199 126.284 310.232 125.756C309.266 125.229 308.453 124.577 307.793 123.801L310.892 119.45C311.492 120.124 312.247 120.695 313.155 121.164C314.063 121.647 315.132 121.889 316.363 121.889C317.432 121.889 318.326 121.699 319.043 121.318C319.776 120.937 320.333 120.38 320.713 119.648C321.094 118.93 321.285 118.059 321.285 117.033V99.8506L321.988 94.2256ZM306.189 106.398V105.937C306.189 104.135 306.409 102.495 306.849 101.015C307.303 99.521 307.947 98.2393 308.782 97.1699C309.632 96.0859 310.657 95.251 311.858 94.665C313.06 94.0791 314.415 93.7861 315.923 93.7861C317.549 93.7861 318.882 94.1011 319.922 94.731C320.977 95.3462 321.819 96.2104 322.449 97.3237C323.094 98.437 323.592 99.7407 323.943 101.235C324.31 102.714 324.617 104.311 324.866 106.025V106.574C324.617 108.186 324.273 109.709 323.833 111.145C323.409 112.565 322.852 113.825 322.164 114.924C321.475 116.022 320.611 116.887 319.571 117.517C318.545 118.132 317.315 118.439 315.879 118.439C314.385 118.439 313.038 118.139 311.836 117.539C310.65 116.938 309.632 116.096 308.782 115.012C307.947 113.928 307.303 112.653 306.849 111.188C306.409 109.724 306.189 108.127 306.189 106.398ZM313.594 105.937V106.398C313.594 107.292 313.675 108.12 313.836 108.881C314.012 109.643 314.275 110.317 314.627 110.903C314.979 111.474 315.411 111.921 315.923 112.243C316.451 112.565 317.066 112.727 317.769 112.727C318.838 112.727 319.703 112.5 320.362 112.045C321.021 111.591 321.497 110.947 321.79 110.112C322.083 109.277 322.208 108.295 322.164 107.167V105.432C322.193 104.465 322.127 103.615 321.966 102.883C321.805 102.136 321.548 101.513 321.197 101.015C320.86 100.517 320.406 100.144 319.834 99.8945C319.278 99.6309 318.604 99.499 317.813 99.499C317.125 99.499 316.517 99.6602 315.989 99.9824C315.462 100.305 315.022 100.759 314.671 101.345C314.319 101.916 314.048 102.597 313.858 103.388C313.682 104.165 313.594 105.014 313.594 105.937Z" fill="white"/>
</g>
<path d="M1363 15C1363 6.71573 1356.28 0 1348 0H1134V167H1348C1356.28 167 1363 160.284 1363 152V15Z" fill="#00ADB5"/>
<path fill-rule="evenodd" clip-rule="evenodd" d="M1203 49C1203 47.8954 1203.9 47 1205 47H1292.5C1293.6 47 1294.5 47.8954 1294.5 49V118.996C1294.5 120.101 1293.6 120.996 1292.5 120.996H1205C1203.9 120.996 1203 120.101 1203 118.996V49ZM1207 51V55.4945H1290.5V51H1207ZM1290.5 59.4945H1235.44V116.996H1290.5V59.4945ZM1231.44 116.996V59.4945H1207V116.996H1231.44Z" fill="white"/>
<path fill-rule="evenodd" clip-rule="evenodd" d="M1209.97 64.8004C1209.97 63.6958 1210.87 62.8004 1211.97 62.8004H1225.97C1227.08 62.8004 1227.97 63.6958 1227.97 64.8004V84.1956C1227.97 85.3001 1227.08 86.1956 1225.97 86.1956H1211.97C1210.87 86.1956 1209.97 85.3001 1209.97 84.1956V64.8004ZM1213.97 66.8004V82.1956H1223.97V66.8004H1213.97ZM1239.58 65.6964C1239.58 64.5918 1240.47 63.6964 1241.58 63.6964H1284.5C1285.61 63.6964 1286.5 64.5918 1286.5 65.6964V111.905C1286.5 113.01 1285.61 113.905 1284.5 113.905H1241.58C1240.47 113.905 1239.58 113.01 1239.58 111.905V65.6964ZM1243.58 67.6964V109.905H1282.5V67.6964H1243.58ZM1209.81 95.9363C1209.81 94.8317 1210.71 93.9363 1211.81 93.9363H1220.73C1221.84 93.9363 1222.73 94.8317 1222.73 95.9363C1222.73 97.0409 1221.84 97.9363 1220.73 97.9363H1211.81C1210.71 97.9363 1209.81 97.0409 1209.81 95.9363ZM1209.81 102.936C1209.81 101.832 1210.71 100.936 1211.81 100.936H1226.35C1227.46 100.936 1228.35 101.832 1228.35 102.936C1228.35 104.041 1227.46 104.936 1226.35 104.936H1211.81C1210.71 104.936 1209.81 104.041 1209.81 102.936ZM1209.81 109.936C1209.81 108.832 1210.71 107.936 1211.81 107.936H1220.73C1221.84 107.936 1222.73 108.832 1222.73 109.936C1222.73 111.041 1221.84 111.936 1220.73 111.936H1211.81C1210.71 111.936 1209.81 111.041 1209.81 109.936Z" fill="white"/>
</svg>
